ISO-10303-21;
HEADER;
FILE_DESCRIPTION (( 'STEP AP214' ),
    '1' );
FILE_NAME ('Path7.STEP',
    '2026-05-18T06:14:06',
    ( '' ),
    ( '' ),
    'SwSTEP 2.0',
    'SolidWorks 2024',
    '' );
FILE_SCHEMA (( 'AUTOMOTIVE_DESIGN' ));
ENDSEC;

DATA;
#1 = SURFACE_SIDE_STYLE ('',( #80 ) ) ;
#2 = VECTOR ( 'NONE', #37, 1000.000000000000000 ) ;
#3 = SURFACE_STYLE_USAGE ( .BOTH. , #786 ) ;
#4 = EDGE_CURVE ( 'NONE', #319, #137, #507, .T. ) ;
#5 = TOROIDAL_SURFACE ( 'NONE', #576, 10.00000000000006395, 1.999999999999996669 ) ;
#6 = COLOUR_RGB ( '',1.000000000000000000, 1.000000000000000000, 1.000000000000000000 ) ;
#7 = FILL_AREA_STYLE_COLOUR ( '', #419 ) ;
#8 = AXIS2_PLACEMENT_3D ( 'NONE', #639, #300, #989 ) ;
#9 = TOROIDAL_SURFACE ( 'NONE', #582, 9.999999999998454570, 1.999999999999996669 ) ;
#10 = PRESENTATION_STYLE_ASSIGNMENT (( #461 ) ) ;
#11 = LINE ( 'NONE', #392, #2 ) ;
#12 = EDGE_CURVE ( 'NONE', #581, #361, #135, .T. ) ;
#13 =( NAMED_UNIT ( * ) SI_UNIT ( $, .STERADIAN. ) SOLID_ANGLE_UNIT ( ) );
#14 = CARTESIAN_POINT ( 'NONE',  ( 330.8758792477384532, 66.21016270987722407, 0.000000000000000000 ) ) ;
#15 = DIRECTION ( 'NONE',  ( -9.064525021433354106E-17, 1.000000000000000000, 0.000000000000000000 ) ) ;
#16 = MECHANICAL_DESIGN_GEOMETRIC_PRESENTATION_REPRESENTATION (  '', ( #804 ), #34 ) ;
#17 = DIRECTION ( 'NONE',  ( 0.000000000000000000, 0.000000000000000000, 1.000000000000000000 ) ) ;
#18 = CIRCLE ( 'NONE', #863, 11.99999999999978861 ) ;
#19 = APPLICATION_CONTEXT ( 'automotive_design' ) ;
#20 = CARTESIAN_POINT ( 'NONE',  ( 330.8758792477384532, 66.21016270987722407, 0.000000000000000000 ) ) ;
#21 = DIRECTION ( 'NONE',  ( 0.000000000000000000, 0.000000000000000000, 1.000000000000000000 ) ) ;
#22 = CIRCLE ( 'NONE', #8, 1.999999999999996669 ) ;
#23 = FACE_OUTER_BOUND ( 'NONE', #849, .T. ) ;
#24 = AXIS2_PLACEMENT_3D ( 'NONE', #719, #641, #453 ) ;
#25 = EDGE_CURVE ( 'NONE', #243, #910, #1009, .T. ) ;
#26 = CARTESIAN_POINT ( 'NONE',  ( -29.99999999999991473, 0.000000000000000000, 0.000000000000000000 ) ) ;
#27 = FACE_OUTER_BOUND ( 'NONE', #497, .T. ) ;
#28 = CARTESIAN_POINT ( 'NONE',  ( -29.99999999999991473, 0.000000000000000000, 0.000000000000000000 ) ) ;
#29 = EDGE_CURVE ( 'NONE', #695, #243, #949, .T. ) ;
#30 =( NAMED_UNIT ( * ) PLANE_ANGLE_UNIT ( ) SI_UNIT ( $, .RADIAN. ) );
#31 = ORIENTED_EDGE ( 'NONE', *, *, #365, .F. ) ;
#32 = DIRECTION ( 'NONE',  ( 0.000000000000000000, 0.000000000000000000, 1.000000000000000000 ) ) ;
#33 = CARTESIAN_POINT ( 'NONE',  ( -40.00000000000003553, -10.00000000000000888, 0.000000000000000000 ) ) ;
#34 =( GEOMETRIC_REPRESENTATION_CONTEXT ( 3 ) GLOBAL_UNCERTAINTY_ASSIGNED_CONTEXT ( ( #216 ) ) GLOBAL_UNIT_ASSIGNED_CONTEXT ( ( #284, #712, #82 ) ) REPRESENTATION_CONTEXT ( 'NONE', 'WORKASPACE' ) );
#35 = ORIENTED_EDGE ( 'NONE', *, *, #504, .T. ) ;
#36 = CARTESIAN_POINT ( 'NONE',  ( -40.00000000000003553, -86.88983729012278445, 0.000000000000000000 ) ) ;
#37 = DIRECTION ( 'NONE',  ( 1.000000000000000000, 0.000000000000000000, 0.000000000000000000 ) ) ;
#38 = ORIENTED_EDGE ( 'NONE', *, *, #893, .F. ) ;
#39 = VECTOR ( 'NONE', #1063, 1000.000000000000000 ) ;
#40 = DIRECTION ( 'NONE',  ( 0.000000000000000000, 0.000000000000000000, 1.000000000000000000 ) ) ;
#41 =( GEOMETRIC_REPRESENTATION_CONTEXT ( 3 ) GLOBAL_UNCERTAINTY_ASSIGNED_CONTEXT ( ( #942 ) ) GLOBAL_UNIT_ASSIGNED_CONTEXT ( ( #279, #531, #539 ) ) REPRESENTATION_CONTEXT ( 'NONE', 'WORKASPACE' ) );
#42 = AXIS2_PLACEMENT_3D ( 'NONE', #114, #320, #574 ) ;
#43 = ORIENTED_EDGE ( 'NONE', *, *, #116, .T. ) ;
#44 = COLOUR_RGB ( '',1.000000000000000000, 1.000000000000000000, 1.000000000000000000 ) ;
#45 = TOROIDAL_SURFACE ( 'NONE', #795, 9.999999999999925393, 1.999999999999996669 ) ;
#46 = ORIENTED_EDGE ( 'NONE', *, *, #934, .F. ) ;
#47 = DIRECTION ( 'NONE',  ( 0.000000000000000000, 0.000000000000000000, 1.000000000000000000 ) ) ;
#48 = EDGE_CURVE ( 'NONE', #568, #147, #73, .T. ) ;
#49 = SURFACE_STYLE_USAGE ( .BOTH. , #165 ) ;
#50 = ORIENTED_EDGE ( 'NONE', *, *, #851, .F. ) ;
#51 = FILL_AREA_STYLE ('',( #951 ) ) ;
#52 = ORIENTED_EDGE ( 'NONE', *, *, #586, .T. ) ;
#53 = ORIENTED_EDGE ( 'NONE', *, *, #29, .F. ) ;
#54 = FACE_OUTER_BOUND ( 'NONE', #1096, .T. ) ;
#55 = VECTOR ( 'NONE', #536, 1000.000000000000000 ) ;
#56 = SURFACE_STYLE_USAGE ( .BOTH. , #257 ) ;
#57 = MECHANICAL_DESIGN_GEOMETRIC_PRESENTATION_REPRESENTATION (  '', ( #981 ), #1034 ) ;
#58 = CIRCLE ( 'NONE', #907, 1.999999999999996669 ) ;
#59 =( LENGTH_UNIT ( ) NAMED_UNIT ( * ) SI_UNIT ( .MILLI., .METRE. ) );
#60 = STYLED_ITEM ( 'NONE', ( #663 ), #1127 ) ;
#61 = VERTEX_POINT ( 'NONE', #677 ) ;
#62 = ORIENTED_EDGE ( 'NONE', *, *, #649, .T. ) ;
#63 = FACE_OUTER_BOUND ( 'NONE', #1020, .T. ) ;
#64 = ORIENTED_EDGE ( 'NONE', *, *, #974, .F. ) ;
#65 = PRESENTATION_STYLE_ASSIGNMENT (( #56 ) ) ;
#66 = UNCERTAINTY_MEASURE_WITH_UNIT (LENGTH_MEASURE( 1.000000000000000082E-05 ), #383, 'distance_accuracy_value', 'NONE');
#67 = EDGE_CURVE ( 'NONE', #1077, #839, #305, .T. ) ;
#68 = SURFACE_STYLE_FILL_AREA ( #850 ) ;
#69 = FILL_AREA_STYLE_COLOUR ( '', #333 ) ;
#70 = ORIENTED_EDGE ( 'NONE', *, *, #851, .T. ) ;
#71 = DIRECTION ( 'NONE',  ( 0.000000000000000000, 0.000000000000000000, -1.000000000000000000 ) ) ;
#72 = PRESENTATION_STYLE_ASSIGNMENT (( #428 ) ) ;
#73 = CIRCLE ( 'NONE', #503, 7.999999999999785061 ) ;
#74 = FACE_OUTER_BOUND ( 'NONE', #944, .T. ) ;
#75 = CIRCLE ( 'NONE', #196, 8.000000000000069278 ) ;
#76 = SURFACE_STYLE_USAGE ( .BOTH. , #714 ) ;
#77 = EDGE_LOOP ( 'NONE', ( #1110, #670, #346, #149 ) ) ;
#78 = SURFACE_STYLE_USAGE ( .BOTH. , #442 ) ;
#79 = PRESENTATION_LAYER_ASSIGNMENT (  '', '', ( #1081 ) ) ;
#80 = SURFACE_STYLE_FILL_AREA ( #526 ) ;
#81 = MECHANICAL_DESIGN_GEOMETRIC_PRESENTATION_REPRESENTATION (  '', ( #203 ), #335 ) ;
#82 =( NAMED_UNIT ( * ) SI_UNIT ( $, .STERADIAN. ) SOLID_ANGLE_UNIT ( ) );
#83 = VERTEX_POINT ( 'NONE', #686 ) ;
#84 = MECHANICAL_DESIGN_GEOMETRIC_PRESENTATION_REPRESENTATION (  '', ( #421 ), #220 ) ;
#85 = FILL_AREA_STYLE ('',( #7 ) ) ;
#86 =( NAMED_UNIT ( * ) PLANE_ANGLE_UNIT ( ) SI_UNIT ( $, .RADIAN. ) );
#87 = DIRECTION ( 'NONE',  ( 0.000000000000000000, 0.000000000000000000, 1.000000000000000000 ) ) ;
#88 = DIRECTION ( 'NONE',  ( 1.000000000000000000, 0.000000000000000000, 0.000000000000000000 ) ) ;
#89 = FILL_AREA_STYLE_COLOUR ( '', #44 ) ;
#90 =( NAMED_UNIT ( * ) PLANE_ANGLE_UNIT ( ) SI_UNIT ( $, .RADIAN. ) );
#91 = DIRECTION ( 'NONE',  ( -1.000000000000000000, 0.000000000000000000, 0.000000000000000000 ) ) ;
#92 = DIRECTION ( 'NONE',  ( 0.000000000000000000, -1.000000000000000000, 0.000000000000000000 ) ) ;
#93 =( NAMED_UNIT ( * ) SI_UNIT ( $, .STERADIAN. ) SOLID_ANGLE_UNIT ( ) );
#94 = DIRECTION ( 'NONE',  ( 1.000000000000000000, 0.000000000000000000, 0.000000000000000000 ) ) ;
#95 =( GEOMETRIC_REPRESENTATION_CONTEXT ( 3 ) GLOBAL_UNCERTAINTY_ASSIGNED_CONTEXT ( ( #646 ) ) GLOBAL_UNIT_ASSIGNED_CONTEXT ( ( #376, #285, #985 ) ) REPRESENTATION_CONTEXT ( 'NONE', 'WORKASPACE' ) );
#96 = CYLINDRICAL_SURFACE ( 'NONE', #252, 2.000000000000001776 ) ;
#97 = AXIS2_PLACEMENT_3D ( 'NONE', #694, #575, #422 ) ;
#98 = ADVANCED_FACE ( 'NONE', ( #74 ), #454, .T. ) ;
#99 = DIRECTION ( 'NONE',  ( 0.000000000000000000, 0.000000000000000000, 1.000000000000000000 ) ) ;
#100 = MECHANICAL_DESIGN_GEOMETRIC_PRESENTATION_REPRESENTATION (  '', ( #760 ), #744 ) ;
#101 = CARTESIAN_POINT ( 'NONE',  ( -40.00000000000003553, -10.00000000000000888, 0.000000000000000000 ) ) ;
#102 = CIRCLE ( 'NONE', #494, 8.000000000000007105 ) ;
#103 = PRESENTATION_LAYER_ASSIGNMENT (  '', '', ( #421 ) ) ;
#104 = SURFACE_STYLE_USAGE ( .BOTH. , #109 ) ;
#105 = FILL_AREA_STYLE_COLOUR ( '', #610 ) ;
#106 = SURFACE_STYLE_USAGE ( .BOTH. , #629 ) ;
#107 = EDGE_CURVE ( 'NONE', #830, #61, #628, .T. ) ;
#108 = DIRECTION ( 'NONE',  ( 0.000000000000000000, 0.000000000000000000, 1.000000000000000000 ) ) ;
#109 = SURFACE_SIDE_STYLE ('',( #616 ) ) ;
#110 = SURFACE_SIDE_STYLE ('',( #566 ) ) ;
#111 = FACE_OUTER_BOUND ( 'NONE', #773, .T. ) ;
#112 = DIRECTION ( 'NONE',  ( 1.000000000000000000, 0.000000000000000000, 0.000000000000000000 ) ) ;
#113 = PRESENTATION_LAYER_ASSIGNMENT (  '', '', ( #955 ) ) ;
#114 = CARTESIAN_POINT ( 'NONE',  ( 221.0978745002273342, -96.88983729012279866, 0.000000000000000000 ) ) ;
#115 =( GEOMETRIC_REPRESENTATION_CONTEXT ( 3 ) GLOBAL_UNCERTAINTY_ASSIGNED_CONTEXT ( ( #1072 ) ) GLOBAL_UNIT_ASSIGNED_CONTEXT ( ( #1055, #90, #371 ) ) REPRESENTATION_CONTEXT ( 'NONE', 'WORKASPACE' ) );
#116 = EDGE_CURVE ( 'NONE', #821, #830, #592, .T. ) ;
#117 = UNCERTAINTY_MEASURE_WITH_UNIT (LENGTH_MEASURE( 1.000000000000000082E-05 ), #455, 'distance_accuracy_value', 'NONE');
#118 = FILL_AREA_STYLE_COLOUR ( '', #682 ) ;
#119 = STYLED_ITEM ( 'NONE', ( #131 ), #401 ) ;
#120 = DIRECTION ( 'NONE',  ( 0.000000000000000000, -1.000000000000000000, 0.000000000000000000 ) ) ;
#121 = AXIS2_PLACEMENT_3D ( 'NONE', #808, #123, #133 ) ;
#122 = MECHANICAL_DESIGN_GEOMETRIC_PRESENTATION_REPRESENTATION (  '', ( #290 ), #162 ) ;
#123 = DIRECTION ( 'NONE',  ( -0.000000000000000000, -0.000000000000000000, -1.000000000000000000 ) ) ;
#124 =( NAMED_UNIT ( * ) SI_UNIT ( $, .STERADIAN. ) SOLID_ANGLE_UNIT ( ) );
#125 = AXIS2_PLACEMENT_3D ( 'NONE', #407, #341, #583 ) ;
#126 = EDGE_CURVE ( 'NONE', #350, #432, #451, .T. ) ;
#127 = ORIENTED_EDGE ( 'NONE', *, *, #870, .T. ) ;
#128 = CARTESIAN_POINT ( 'NONE',  ( 231.0978745002274479, -86.88983729012267077, 0.000000000000000000 ) ) ;
#129 =( NAMED_UNIT ( * ) PLANE_ANGLE_UNIT ( ) SI_UNIT ( $, .RADIAN. ) );
#130 = CARTESIAN_POINT ( 'NONE',  ( 241.0978745002274479, 76.21016270987723829, 2.000000000000001776 ) ) ;
#131 = PRESENTATION_STYLE_ASSIGNMENT (( #902 ) ) ;
#132 = ORIENTED_EDGE ( 'NONE', *, *, #265, .T. ) ;
#133 = DIRECTION ( 'NONE',  ( -1.000000000000000000, 0.000000000000000000, 0.000000000000000000 ) ) ;
#134 = DIRECTION ( 'NONE',  ( 0.000000000000000000, 0.000000000000000000, 1.000000000000000000 ) ) ;
#135 = CIRCLE ( 'NONE', #879, 1.999999999999996669 ) ;
#136 = AXIS2_PLACEMENT_3D ( 'NONE', #210, #221, #552 ) ;
#137 = VERTEX_POINT ( 'NONE', #1061 ) ;
#138 = ADVANCED_FACE ( 'NONE', ( #890 ), #961, .T. ) ;
#139 = AXIS2_PLACEMENT_3D ( 'NONE', #625, #466, #800 ) ;
#140 = ORIENTED_EDGE ( 'NONE', *, *, #545, .T. ) ;
#141 = AXIS2_PLACEMENT_3D ( 'NONE', #253, #329, #596 ) ;
#142 = SURFACE_STYLE_FILL_AREA ( #1098 ) ;
#143 = MECHANICAL_DESIGN_GEOMETRIC_PRESENTATION_REPRESENTATION (  '', ( #615 ), #476 ) ;
#144 = AXIS2_PLACEMENT_3D ( 'NONE', #427, #589, #500 ) ;
#145 = STYLED_ITEM ( 'NONE', ( #803 ), #1078 ) ;
#146 = FACE_OUTER_BOUND ( 'NONE', #761, .T. ) ;
#147 = VERTEX_POINT ( 'NONE', #190 ) ;
#148 = APPLICATION_CONTEXT ( 'automotive_design' ) ;
#149 = ORIENTED_EDGE ( 'NONE', *, *, #917, .F. ) ;
#150 = CARTESIAN_POINT ( 'NONE',  ( -38.00000000000003553, -10.00000000000000888, 0.000000000000000000 ) ) ;
#151 =( LENGTH_UNIT ( ) NAMED_UNIT ( * ) SI_UNIT ( .MILLI., .METRE. ) );
#152 = ORIENTED_EDGE ( 'NONE', *, *, #974, .T. ) ;
#153 = DIRECTION ( 'NONE',  ( 1.000000000000000000, 0.000000000000000000, 0.000000000000000000 ) ) ;
#154 = PRESENTATION_LAYER_ASSIGNMENT (  '', '', ( #804 ) ) ;
#155 = PRESENTATION_LAYER_ASSIGNMENT (  '', '', ( #973 ) ) ;
#156 = DIRECTION ( 'NONE',  ( -1.000000000000000000, 0.000000000000000000, 0.000000000000000000 ) ) ;
#157 = ORIENTED_EDGE ( 'NONE', *, *, #571, .F. ) ;
#158 = FACE_OUTER_BOUND ( 'NONE', #228, .T. ) ;
#159 = VERTEX_POINT ( 'NONE', #968 ) ;
#160 = COLOUR_RGB ( '',1.000000000000000000, 1.000000000000000000, 1.000000000000000000 ) ;
#161 = FACE_OUTER_BOUND ( 'NONE', #689, .T. ) ;
#162 =( GEOMETRIC_REPRESENTATION_CONTEXT ( 3 ) GLOBAL_UNCERTAINTY_ASSIGNED_CONTEXT ( ( #769 ) ) GLOBAL_UNIT_ASSIGNED_CONTEXT ( ( #248, #498, #753 ) ) REPRESENTATION_CONTEXT ( 'NONE', 'WORKASPACE' ) );
#163 = EDGE_CURVE ( 'NONE', #1029, #821, #75, .T. ) ;
#164 = CIRCLE ( 'NONE', #512, 1.999999999999996669 ) ;
#165 = SURFACE_SIDE_STYLE ('',( #834 ) ) ;
#166 = ORIENTED_EDGE ( 'NONE', *, *, #1039, .T. ) ;
#167 = SURFACE_SIDE_STYLE ('',( #142 ) ) ;
#168 = EDGE_LOOP ( 'NONE', ( #1111, #914 ) ) ;
#169 = CARTESIAN_POINT ( 'NONE',  ( -29.99999999999997158, -10.00000000000000888, 0.000000000000000000 ) ) ;
#170 = UNCERTAINTY_MEASURE_WITH_UNIT (LENGTH_MEASURE( 1.000000000000000082E-05 ), #59, 'distance_accuracy_value', 'NONE');
#171 = CARTESIAN_POINT ( 'NONE',  ( 221.0978745002273342, -96.88983729012279866, 0.000000000000000000 ) ) ;
#172 = DIRECTION ( 'NONE',  ( 1.982541115402069794E-16, -1.000000000000000000, 0.000000000000000000 ) ) ;
#173 = ADVANCED_FACE ( 'NONE', ( #971 ), #96, .T. ) ;
#174 = DIRECTION ( 'NONE',  ( -1.000000000000000000, 0.000000000000000000, 0.000000000000000000 ) ) ;
#175 = VERTEX_POINT ( 'NONE', #999 ) ;
#176 = DIRECTION ( 'NONE',  ( 1.000000000000000000, 0.000000000000000000, 0.000000000000000000 ) ) ;
#177 = CLOSED_SHELL ( 'NONE', ( #401, #1117, #750, #1051, #984, #173, #731, #226, #988, #837, #373, #138, #516, #965, #790, #408, #98, #338, #440, #812, #1078, #298, #499, #1127 ) ) ;
#178 = DIRECTION ( 'NONE',  ( 1.982541115402069794E-16, -1.000000000000000000, 0.000000000000000000 ) ) ;
#179 =( LENGTH_UNIT ( ) NAMED_UNIT ( * ) SI_UNIT ( .MILLI., .METRE. ) );
#180 = AXIS2_PLACEMENT_3D ( 'NONE', #195, #884, #99 ) ;
#181 = PRESENTATION_STYLE_ASSIGNMENT (( #784 ) ) ;
#182 = CIRCLE ( 'NONE', #962, 1.999999999999996669 ) ;
#183 = CIRCLE ( 'NONE', #313, 1.999999999999996669 ) ;
#184 = FILL_AREA_STYLE ('',( #637 ) ) ;
#185 = CIRCLE ( 'NONE', #462, 1.999999999999996669 ) ;
#186 = DIRECTION ( 'NONE',  ( 1.982541115402069794E-16, -1.000000000000000000, 0.000000000000000000 ) ) ;
#187 = DIRECTION ( 'NONE',  ( 0.000000000000000000, 0.000000000000000000, -1.000000000000000000 ) ) ;
#188 = UNCERTAINTY_MEASURE_WITH_UNIT (LENGTH_MEASURE( 1.000000000000000082E-05 ), #1107, 'distance_accuracy_value', 'NONE');
#189 =( LENGTH_UNIT ( ) NAMED_UNIT ( * ) SI_UNIT ( .MILLI., .METRE. ) );
#190 = CARTESIAN_POINT ( 'NONE',  ( 328.8758792477383963, 66.21016270987722407, 0.000000000000000000 ) ) ;
#191 = DIRECTION ( 'NONE',  ( 0.000000000000000000, 0.000000000000000000, 1.000000000000000000 ) ) ;
#192 = FILL_AREA_STYLE ('',( #970 ) ) ;
#193 = CARTESIAN_POINT ( 'NONE',  ( -29.99999999999991473, 0.000000000000000000, 0.000000000000000000 ) ) ;
#194 = VECTOR ( 'NONE', #796, 1000.000000000000000 ) ;
#195 = CARTESIAN_POINT ( 'NONE',  ( -40.00000000000003553, -86.88983729012278445, 0.000000000000000000 ) ) ;
#196 = AXIS2_PLACEMENT_3D ( 'NONE', #799, #789, #377 ) ;
#197 = EDGE_CURVE ( 'NONE', #1090, #83, #317, .T. ) ;
#198 = DIRECTION ( 'NONE',  ( 1.000000000000000000, 5.551115123125777969E-15, 0.000000000000000000 ) ) ;
#199 = PRESENTATION_LAYER_ASSIGNMENT (  '', '', ( #652 ) ) ;
#200 = FILL_AREA_STYLE ('',( #1045 ) ) ;
#201 = CIRCLE ( 'NONE', #1121, 1.999999999999996669 ) ;
#202 = DIRECTION ( 'NONE',  ( -1.110223024625156383E-14, 1.000000000000000000, 0.000000000000000000 ) ) ;
#203 = STYLED_ITEM ( 'NONE', ( #271 ), #837 ) ;
#204 = PRODUCT_DEFINITION_FORMATION_WITH_SPECIFIED_SOURCE ( 'ANY', '', #630, .NOT_KNOWN. ) ;
#205 = FILL_AREA_STYLE ('',( #374 ) ) ;
#206 = PRESENTATION_STYLE_ASSIGNMENT (( #877 ) ) ;
#207 = CARTESIAN_POINT ( 'NONE',  ( 221.0978745002273911, -86.88983729012278445, 0.000000000000000000 ) ) ;
#208 = DIRECTION ( 'NONE',  ( -9.064525021433354106E-17, 1.000000000000000000, 0.000000000000000000 ) ) ;
#209 =( LENGTH_UNIT ( ) NAMED_UNIT ( * ) SI_UNIT ( .MILLI., .METRE. ) );
#210 = CARTESIAN_POINT ( 'NONE',  ( 231.0978745002274479, -86.88983729012267077, 0.000000000000000000 ) ) ;
#211 = FILL_AREA_STYLE ('',( #1005 ) ) ;
#212 = CARTESIAN_POINT ( 'NONE',  ( -29.99999999999997158, -10.00000000000000888, 0.000000000000000000 ) ) ;
#213 = EDGE_CURVE ( 'NONE', #502, #852, #881, .T. ) ;
#214 = CARTESIAN_POINT ( 'NONE',  ( -29.99999999999997158, -10.00000000000000888, 0.000000000000000000 ) ) ;
#215 = PRESENTATION_STYLE_ASSIGNMENT (( #899 ) ) ;
#216 = UNCERTAINTY_MEASURE_WITH_UNIT (LENGTH_MEASURE( 1.000000000000000082E-05 ), #284, 'distance_accuracy_value', 'NONE');
#217 = AXIS2_PLACEMENT_3D ( 'NONE', #911, #723, #662 ) ;
#218 = TOROIDAL_SURFACE ( 'NONE', #258, 9.999999999999925393, 1.999999999999996669 ) ;
#219 =( LENGTH_UNIT ( ) NAMED_UNIT ( * ) SI_UNIT ( .MILLI., .METRE. ) );
#220 =( GEOMETRIC_REPRESENTATION_CONTEXT ( 3 ) GLOBAL_UNCERTAINTY_ASSIGNED_CONTEXT ( ( #873 ) ) GLOBAL_UNIT_ASSIGNED_CONTEXT ( ( #209, #129, #995 ) ) REPRESENTATION_CONTEXT ( 'NONE', 'WORKASPACE' ) );
#221 = DIRECTION ( 'NONE',  ( -9.064525021433354106E-17, 1.000000000000000000, 0.000000000000000000 ) ) ;
#222 = VERTEX_POINT ( 'NONE', #901 ) ;
#223 = CARTESIAN_POINT ( 'NONE',  ( 330.8758792477384532, 31.21016270987730934, 0.000000000000000000 ) ) ;
#224 = SURFACE_STYLE_USAGE ( .BOTH. , #564 ) ;
#225 = ORIENTED_EDGE ( 'NONE', *, *, #379, .T. ) ;
#226 = ADVANCED_FACE ( 'NONE', ( #471 ), #484, .T. ) ;
#227 = SURFACE_SIDE_STYLE ('',( #554 ) ) ;
#228 = EDGE_LOOP ( 'NONE', ( #491, #234, #1004, #599, #835 ) ) ;
#229 = AXIS2_PLACEMENT_3D ( 'NONE', #765, #522, #517 ) ;
#230 = CIRCLE ( 'NONE', #287, 1.999999999999996669 ) ;
#231 = ORIENTED_EDGE ( 'NONE', *, *, #969, .T. ) ;
#232 = DIRECTION ( 'NONE',  ( -0.000000000000000000, -0.000000000000000000, -1.000000000000000000 ) ) ;
#233 = AXIS2_PLACEMENT_3D ( 'NONE', #977, #548, #191 ) ;
#234 = ORIENTED_EDGE ( 'NONE', *, *, #578, .T. ) ;
#235 = MECHANICAL_DESIGN_GEOMETRIC_PRESENTATION_REPRESENTATION (  '', ( #809 ), #614 ) ;
#236 = ORIENTED_EDGE ( 'NONE', *, *, #934, .T. ) ;
#237 =( NAMED_UNIT ( * ) SI_UNIT ( $, .STERADIAN. ) SOLID_ANGLE_UNIT ( ) );
#238 = COLOUR_RGB ( '',1.000000000000000000, 1.000000000000000000, 1.000000000000000000 ) ;
#239 = PRESENTATION_LAYER_ASSIGNMENT (  '', '', ( #580 ) ) ;
#240 = AXIS2_PLACEMENT_3D ( 'NONE', #278, #1059, #456 ) ;
#241 = CARTESIAN_POINT ( 'NONE',  ( -29.99999999999997158, -86.88983729012278445, 0.000000000000000000 ) ) ;
#242 = ORIENTED_EDGE ( 'NONE', *, *, #25, .F. ) ;
#243 = VERTEX_POINT ( 'NONE', #734 ) ;
#244 = PRESENTATION_STYLE_ASSIGNMENT (( #920 ) ) ;
#245 = DIRECTION ( 'NONE',  ( 0.000000000000000000, 0.000000000000000000, 1.000000000000000000 ) ) ;
#246 = ORIENTED_EDGE ( 'NONE', *, *, #893, .T. ) ;
#247 = ORIENTED_EDGE ( 'NONE', *, *, #48, .F. ) ;
#248 =( LENGTH_UNIT ( ) NAMED_UNIT ( * ) SI_UNIT ( .MILLI., .METRE. ) );
#249 = EDGE_CURVE ( 'NONE', #432, #1038, #230, .T. ) ;
#250 =( NAMED_UNIT ( * ) PLANE_ANGLE_UNIT ( ) SI_UNIT ( $, .RADIAN. ) );
#251 = UNCERTAINTY_MEASURE_WITH_UNIT (LENGTH_MEASURE( 1.000000000000000082E-05 ), #179, 'distance_accuracy_value', 'NONE');
#252 = AXIS2_PLACEMENT_3D ( 'NONE', #397, #653, #475 ) ;
#253 = CARTESIAN_POINT ( 'NONE',  ( -29.99999999999991473, -96.88983729012279866, 0.000000000000000000 ) ) ;
#254 = ORIENTED_EDGE ( 'NONE', *, *, #116, .F. ) ;
#255 = ORIENTED_EDGE ( 'NONE', *, *, #1019, .F. ) ;
#256 = COLOUR_RGB ( '',1.000000000000000000, 1.000000000000000000, 1.000000000000000000 ) ;
#257 = SURFACE_SIDE_STYLE ('',( #602 ) ) ;
#258 = AXIS2_PLACEMENT_3D ( 'NONE', #608, #964, #174 ) ;
#259 = PRESENTATION_LAYER_ASSIGNMENT (  '', '', ( #745 ) ) ;
#260 = FILL_AREA_STYLE ('',( #1033 ) ) ;
#261 = ORIENTED_EDGE ( 'NONE', *, *, #665, .F. ) ;
#262 = CARTESIAN_POINT ( 'NONE',  ( 221.0978745002273342, -98.88983729012279866, 0.000000000000000000 ) ) ;
#263 = ORIENTED_EDGE ( 'NONE', *, *, #912, .T. ) ;
#264 = FACE_OUTER_BOUND ( 'NONE', #1028, .T. ) ;
#265 = EDGE_CURVE ( 'NONE', #147, #910, #993, .T. ) ;
#266 = ORIENTED_EDGE ( 'NONE', *, *, #1094, .F. ) ;
#267 = DIRECTION ( 'NONE',  ( 0.000000000000000000, 0.000000000000000000, 1.000000000000000000 ) ) ;
#268 = UNCERTAINTY_MEASURE_WITH_UNIT (LENGTH_MEASURE( 1.000000000000000082E-05 ), #420, 'distance_accuracy_value', 'NONE');
#269 = CARTESIAN_POINT ( 'NONE',  ( 0.000000000000000000, 0.000000000000000000, 2.000000000000001776 ) ) ;
#270 = AXIS2_PLACEMENT_3D ( 'NONE', #1129, #172, #423 ) ;
#271 = PRESENTATION_STYLE_ASSIGNMENT (( #696 ) ) ;
#272 = CARTESIAN_POINT ( 'NONE',  ( 233.0978745002274479, 66.21016270987722407, 0.000000000000000000 ) ) ;
#273 = AXIS2_PLACEMENT_3D ( 'NONE', #128, #306, #32 ) ;
#274 = SURFACE_STYLE_USAGE ( .BOTH. , #1049 ) ;
#275 = PRESENTATION_LAYER_ASSIGNMENT (  '', '', ( #203 ) ) ;
#276 = PRESENTATION_LAYER_ASSIGNMENT (  '', '', ( #145 ) ) ;
#277 = FILL_AREA_STYLE ('',( #463 ) ) ;
#278 = CARTESIAN_POINT ( 'NONE',  ( -29.99999999999997158, -86.88983729012278445, 0.000000000000000000 ) ) ;
#279 =( LENGTH_UNIT ( ) NAMED_UNIT ( * ) SI_UNIT ( .MILLI., .METRE. ) );
#280 = CARTESIAN_POINT ( 'NONE',  ( 0.000000000000000000, 0.000000000000000000, -2.000000000000001776 ) ) ;
#281 = SURFACE_STYLE_FILL_AREA ( #277 ) ;
#282 = DIRECTION ( 'NONE',  ( 0.000000000000000000, -1.000000000000000000, 0.000000000000000000 ) ) ;
#283 = EDGE_CURVE ( 'NONE', #931, #695, #18, .T. ) ;
#284 =( LENGTH_UNIT ( ) NAMED_UNIT ( * ) SI_UNIT ( .MILLI., .METRE. ) );
#285 =( NAMED_UNIT ( * ) PLANE_ANGLE_UNIT ( ) SI_UNIT ( $, .RADIAN. ) );
#286 = DIRECTION ( 'NONE',  ( 0.000000000000000000, 0.000000000000000000, 1.000000000000000000 ) ) ;
#287 = AXIS2_PLACEMENT_3D ( 'NONE', #26, #303, #647 ) ;
#288 = PRODUCT_DEFINITION_SHAPE ( 'NONE', 'NONE',  #304 ) ;
#289 = DIRECTION ( 'NONE',  ( 0.000000000000000000, 0.000000000000000000, -1.000000000000000000 ) ) ;
#290 = STYLED_ITEM ( 'NONE', ( #1030 ), #731 ) ;
#291 = MECHANICAL_DESIGN_GEOMETRIC_PRESENTATION_REPRESENTATION (  '', ( #580 ), #778 ) ;
#292 = LINE ( 'NONE', #555, #601 ) ;
#293 = CIRCLE ( 'NONE', #926, 1.999999999999996669 ) ;
#294 = DIRECTION ( 'NONE',  ( 0.000000000000000000, 0.000000000000000000, 1.000000000000000000 ) ) ;
#295 = MECHANICAL_DESIGN_GEOMETRIC_PRESENTATION_REPRESENTATION (  '', ( #444 ), #747 ) ;
#296 = SURFACE_SIDE_STYLE ('',( #887 ) ) ;
#297 = SURFACE_STYLE_USAGE ( .BOTH. , #110 ) ;
#298 = ADVANCED_FACE ( 'NONE', ( #111 ), #533, .T. ) ;
#299 = DIRECTION ( 'NONE',  ( 0.000000000000000000, 0.000000000000000000, 1.000000000000000000 ) ) ;
#300 = DIRECTION ( 'NONE',  ( 1.000000000000000000, 5.551115123125777969E-15, 0.000000000000000000 ) ) ;
#301 = DIRECTION ( 'NONE',  ( 1.000000000000000000, 0.000000000000000000, 0.000000000000000000 ) ) ;
#302 = DIRECTION ( 'NONE',  ( 0.000000000000000000, 0.000000000000000000, 1.000000000000000000 ) ) ;
#303 = DIRECTION ( 'NONE',  ( -1.000000000000000000, 0.000000000000000000, 0.000000000000000000 ) ) ;
#304 = PRODUCT_DEFINITION ( 'UNKNOWN', '', #204, #956 ) ;
#305 = CIRCLE ( 'NONE', #229, 7.999999999999923617 ) ;
#306 = DIRECTION ( 'NONE',  ( -1.110223024625156383E-14, 1.000000000000000000, 0.000000000000000000 ) ) ;
#307 = CARTESIAN_POINT ( 'NONE',  ( 241.0978745002273911, 66.21016270987722407, 0.000000000000000000 ) ) ;
#308 = DIRECTION ( 'NONE',  ( 0.000000000000000000, -1.000000000000000000, 0.000000000000000000 ) ) ;
#309 = COLOUR_RGB ( '',1.000000000000000000, 1.000000000000000000, 1.000000000000000000 ) ;
#310 =( NAMED_UNIT ( * ) SI_UNIT ( $, .STERADIAN. ) SOLID_ANGLE_UNIT ( ) );
#311 = MECHANICAL_DESIGN_GEOMETRIC_PRESENTATION_REPRESENTATION (  '', ( #652 ), #759 ) ;
#312 = ORIENTED_EDGE ( 'NONE', *, *, #163, .T. ) ;
#313 = AXIS2_PLACEMENT_3D ( 'NONE', #915, #208, #21 ) ;
#314 = AXIS2_PLACEMENT_3D ( 'NONE', #878, #92, #464 ) ;
#315 = COLOUR_RGB ( '',1.000000000000000000, 1.000000000000000000, 1.000000000000000000 ) ;
#316 = VERTEX_POINT ( 'NONE', #538 ) ;
#317 = LINE ( 'NONE', #130, #648 ) ;
#318 = FILL_AREA_STYLE ('',( #815 ) ) ;
#319 = VERTEX_POINT ( 'NONE', #717 ) ;
#320 = DIRECTION ( 'NONE',  ( 1.000000000000000000, 0.000000000000000000, 0.000000000000000000 ) ) ;
#321 = FACE_OUTER_BOUND ( 'NONE', #168, .T. ) ;
#322 = EDGE_CURVE ( 'NONE', #159, #1108, #797, .T. ) ;
#323 = ORIENTED_EDGE ( 'NONE', *, *, #912, .F. ) ;
#324 = ORIENTED_EDGE ( 'NONE', *, *, #699, .T. ) ;
#325 = ORIENTED_EDGE ( 'NONE', *, *, #665, .T. ) ;
#326 = DIRECTION ( 'NONE',  ( 1.000000000000000000, 0.000000000000000000, 0.000000000000000000 ) ) ;
#327 = VECTOR ( 'NONE', #88, 1000.000000000000000 ) ;
#328 = EDGE_CURVE ( 'NONE', #1108, #656, #791, .T. ) ;
#329 = DIRECTION ( 'NONE',  ( 1.000000000000000000, 5.551115123125777969E-15, 0.000000000000000000 ) ) ;
#330 = PRESENTATION_LAYER_ASSIGNMENT (  '', '', ( #119 ) ) ;
#331 = ORIENTED_EDGE ( 'NONE', *, *, #1133, .F. ) ;
#332 = ORIENTED_EDGE ( 'NONE', *, *, #1109, .T. ) ;
#333 = COLOUR_RGB ( '',1.000000000000000000, 1.000000000000000000, 1.000000000000000000 ) ;
#334 = SHAPE_DEFINITION_REPRESENTATION ( #288, #976 ) ;
#335 =( GEOMETRIC_REPRESENTATION_CONTEXT ( 3 ) GLOBAL_UNCERTAINTY_ASSIGNED_CONTEXT ( ( #603 ) ) GLOBAL_UNIT_ASSIGNED_CONTEXT ( ( #1130, #437, #621 ) ) REPRESENTATION_CONTEXT ( 'NONE', 'WORKASPACE' ) );
#336 =( GEOMETRIC_REPRESENTATION_CONTEXT ( 3 ) GLOBAL_UNCERTAINTY_ASSIGNED_CONTEXT ( ( #528 ) ) GLOBAL_UNIT_ASSIGNED_CONTEXT ( ( #569, #391, #1074 ) ) REPRESENTATION_CONTEXT ( 'NONE', 'WORKASPACE' ) );
#337 =( NAMED_UNIT ( * ) PLANE_ANGLE_UNIT ( ) SI_UNIT ( $, .RADIAN. ) );
#338 = ADVANCED_FACE ( 'NONE', ( #541 ), #713, .T. ) ;
#339 = ORIENTED_EDGE ( 'NONE', *, *, #1003, .F. ) ;
#340 = SURFACE_STYLE_USAGE ( .BOTH. , #412 ) ;
#341 = DIRECTION ( 'NONE',  ( 1.000000000000000000, 0.000000000000000000, 0.000000000000000000 ) ) ;
#342 =( NAMED_UNIT ( * ) PLANE_ANGLE_UNIT ( ) SI_UNIT ( $, .RADIAN. ) );
#343 = FACE_OUTER_BOUND ( 'NONE', #77, .T. ) ;
#344 = EDGE_LOOP ( 'NONE', ( #404, #411, #324, #929, #50, #255 ) ) ;
#345 = FILL_AREA_STYLE ('',( #418 ) ) ;
#346 = ORIENTED_EDGE ( 'NONE', *, *, #322, .T. ) ;
#347 = UNCERTAINTY_MEASURE_WITH_UNIT (LENGTH_MEASURE( 1.000000000000000082E-05 ), #853, 'distance_accuracy_value', 'NONE');
#348 =( NAMED_UNIT ( * ) PLANE_ANGLE_UNIT ( ) SI_UNIT ( $, .RADIAN. ) );
#349 = ORIENTED_EDGE ( 'NONE', *, *, #897, .T. ) ;
#350 = VERTEX_POINT ( 'NONE', #612 ) ;
#351 = MECHANICAL_DESIGN_GEOMETRIC_PRESENTATION_REPRESENTATION (  '', ( #885 ), #353 ) ;
#352 = ORIENTED_EDGE ( 'NONE', *, *, #613, .T. ) ;
#353 =( GEOMETRIC_REPRESENTATION_CONTEXT ( 3 ) GLOBAL_UNCERTAINTY_ASSIGNED_CONTEXT ( ( #434 ) ) GLOBAL_UNIT_ASSIGNED_CONTEXT ( ( #732, #1000, #817 ) ) REPRESENTATION_CONTEXT ( 'NONE', 'WORKASPACE' ) );
#354 = AXIS2_PLACEMENT_3D ( 'NONE', #368, #698, #87 ) ;
#355 = EDGE_CURVE ( 'NONE', #1029, #222, #1014, .T. ) ;
#356 = CYLINDRICAL_SURFACE ( 'NONE', #947, 1.999999999999996669 ) ;
#357 = CIRCLE ( 'NONE', #443, 1.999999999999996669 ) ;
#358 = FILL_AREA_STYLE ('',( #838 ) ) ;
#359 = ORIENTED_EDGE ( 'NONE', *, *, #882, .F. ) ;
#360 = CARTESIAN_POINT ( 'NONE',  ( -29.99999999999991473, -96.88983729012279866, 2.000000000000001776 ) ) ;
#361 = VERTEX_POINT ( 'NONE', #721 ) ;
#362 = UNCERTAINTY_MEASURE_WITH_UNIT (LENGTH_MEASURE( 1.000000000000000082E-05 ), #702, 'distance_accuracy_value', 'NONE');
#363 = CARTESIAN_POINT ( 'NONE',  ( -29.99999999999991473, -96.88983729012279866, -2.000000000000001776 ) ) ;
#364 = DIRECTION ( 'NONE',  ( 0.000000000000000000, 0.000000000000000000, 1.000000000000000000 ) ) ;
#365 = EDGE_CURVE ( 'NONE', #948, #175, #11, .T. ) ;
#366 = SURFACE_STYLE_FILL_AREA ( #200 ) ;
#367 = MECHANICAL_DESIGN_GEOMETRIC_PRESENTATION_REPRESENTATION (  '', ( #473 ), #95 ) ;
#368 = CARTESIAN_POINT ( 'NONE',  ( 330.8758792477384532, 31.21016270987730934, 0.000000000000000000 ) ) ;
#369 = AXIS2_PLACEMENT_3D ( 'NONE', #28, #487, #825 ) ;
#370 = CIRCLE ( 'NONE', #945, 1.999999999999996669 ) ;
#371 =( NAMED_UNIT ( * ) SI_UNIT ( $, .STERADIAN. ) SOLID_ANGLE_UNIT ( ) );
#372 = PRESENTATION_LAYER_ASSIGNMENT (  '', '', ( #444 ) ) ;
#373 = ADVANCED_FACE ( 'NONE', ( #485 ), #642, .T. ) ;
#374 = FILL_AREA_STYLE_COLOUR ( '', #1067 ) ;
#375 = DIRECTION ( 'NONE',  ( 1.000000000000000000, 0.000000000000000000, 0.000000000000000000 ) ) ;
#376 =( LENGTH_UNIT ( ) NAMED_UNIT ( * ) SI_UNIT ( .MILLI., .METRE. ) );
#377 = DIRECTION ( 'NONE',  ( 1.000000000000000000, 0.000000000000000000, 0.000000000000000000 ) ) ;
#378 = DIRECTION ( 'NONE',  ( -9.064525021433354106E-17, 1.000000000000000000, 0.000000000000000000 ) ) ;
#379 = EDGE_CURVE ( 'NONE', #222, #502, #398, .T. ) ;
#380 = AXIS2_PLACEMENT_3D ( 'NONE', #214, #40, #650 ) ;
#381 =( LENGTH_UNIT ( ) NAMED_UNIT ( * ) SI_UNIT ( .MILLI., .METRE. ) );
#382 = CIRCLE ( 'NONE', #441, 1.999999999999996669 ) ;
#383 =( LENGTH_UNIT ( ) NAMED_UNIT ( * ) SI_UNIT ( .MILLI., .METRE. ) );
#384 = STYLED_ITEM ( 'NONE', ( #780 ), #988 ) ;
#385 = CARTESIAN_POINT ( 'NONE',  ( 328.8758792477383963, 31.21016270987730934, 0.000000000000000000 ) ) ;
#386 = MECHANICAL_DESIGN_GEOMETRIC_PRESENTATION_REPRESENTATION (  '', ( #145 ), #514 ) ;
#387 = DIRECTION ( 'NONE',  ( -1.000000000000000000, 0.000000000000000000, 0.000000000000000000 ) ) ;
#388 = UNCERTAINTY_MEASURE_WITH_UNIT (LENGTH_MEASURE( 1.000000000000000082E-05 ), #381, 'distance_accuracy_value', 'NONE');
#389 = DIRECTION ( 'NONE',  ( -1.000000000000000000, -0.000000000000000000, -0.000000000000000000 ) ) ;
#390 = DIRECTION ( 'NONE',  ( 0.000000000000000000, -1.000000000000000000, 0.000000000000000000 ) ) ;
#391 =( NAMED_UNIT ( * ) PLANE_ANGLE_UNIT ( ) SI_UNIT ( $, .RADIAN. ) );
#392 = CARTESIAN_POINT ( 'NONE',  ( -29.99999999999991473, -96.88983729012279866, -2.000000000000001776 ) ) ;
#393 = ORIENTED_EDGE ( 'NONE', *, *, #328, .T. ) ;
#394 = MECHANICAL_DESIGN_GEOMETRIC_PRESENTATION_REPRESENTATION (  '', ( #973 ), #667 ) ;
#395 = DIRECTION ( 'NONE',  ( 0.000000000000000000, -1.000000000000000000, 0.000000000000000000 ) ) ;
#396 = ORIENTED_EDGE ( 'NONE', *, *, #249, .T. ) ;
#397 = CARTESIAN_POINT ( 'NONE',  ( 330.8758792477384532, 66.21016270987722407, 0.000000000000000000 ) ) ;
#398 = CIRCLE ( 'NONE', #922, 1.999999999999996669 ) ;
#399 = MECHANICAL_DESIGN_GEOMETRIC_PRESENTATION_REPRESENTATION (  '', ( #1081 ), #41 ) ;
#400 = ORIENTED_EDGE ( 'NONE', *, *, #1133, .T. ) ;
#401 = ADVANCED_FACE ( 'NONE', ( #27 ), #651, .T. ) ;
#402 = CARTESIAN_POINT ( 'NONE',  ( 0.000000000000000000, 0.000000000000000000, 0.000000000000000000 ) ) ;
#403 = AXIS2_PLACEMENT_3D ( 'NONE', #631, #120, #903 ) ;
#404 = ORIENTED_EDGE ( 'NONE', *, *, #197, .F. ) ;
#405 = ORIENTED_EDGE ( 'NONE', *, *, #882, .T. ) ;
#406 = SURFACE_STYLE_FILL_AREA ( #345 ) ;
#407 = CARTESIAN_POINT ( 'NONE',  ( 221.0978745002273342, -96.88983729012279866, 0.000000000000000000 ) ) ;
#408 = ADVANCED_FACE ( 'NONE', ( #343 ), #684, .T. ) ;
#409 =( NAMED_UNIT ( * ) SI_UNIT ( $, .STERADIAN. ) SOLID_ANGLE_UNIT ( ) );
#410 = ORIENTED_EDGE ( 'NONE', *, *, #265, .F. ) ;
#411 = ORIENTED_EDGE ( 'NONE', *, *, #681, .T. ) ;
#412 = SURFACE_SIDE_STYLE ('',( #767 ) ) ;
#413 = DIRECTION ( 'NONE',  ( 0.000000000000000000, 0.000000000000000000, 1.000000000000000000 ) ) ;
#414 =( GEOMETRIC_REPRESENTATION_CONTEXT ( 3 ) GLOBAL_UNCERTAINTY_ASSIGNED_CONTEXT ( ( #117 ) ) GLOBAL_UNIT_ASSIGNED_CONTEXT ( ( #455, #705, #891 ) ) REPRESENTATION_CONTEXT ( 'NONE', 'WORKASPACE' ) );
#415 = ORIENTED_EDGE ( 'NONE', *, *, #816, .T. ) ;
#416 = CIRCLE ( 'NONE', #217, 1.999999999999996669 ) ;
#417 = ORIENTED_EDGE ( 'NONE', *, *, #48, .T. ) ;
#418 = FILL_AREA_STYLE_COLOUR ( '', #6 ) ;
#419 = COLOUR_RGB ( '',1.000000000000000000, 1.000000000000000000, 1.000000000000000000 ) ;
#420 =( LENGTH_UNIT ( ) NAMED_UNIT ( * ) SI_UNIT ( .MILLI., .METRE. ) );
#421 = STYLED_ITEM ( 'NONE', ( #215 ), #1117 ) ;
#422 = DIRECTION ( 'NONE',  ( -1.000000000000000000, 0.000000000000000000, 0.000000000000000000 ) ) ;
#423 = DIRECTION ( 'NONE',  ( 0.000000000000000000, 0.000000000000000000, 1.000000000000000000 ) ) ;
#424 = ORIENTED_EDGE ( 'NONE', *, *, #715, .T. ) ;
#425 = FILL_AREA_STYLE_COLOUR ( '', #238 ) ;
#426 = ORIENTED_EDGE ( 'NONE', *, *, #715, .F. ) ;
#427 = CARTESIAN_POINT ( 'NONE',  ( -29.99999999999991473, -96.88983729012279866, 0.000000000000000000 ) ) ;
#428 = SURFACE_STYLE_USAGE ( .BOTH. , #505 ) ;
#429 = CARTESIAN_POINT ( 'NONE',  ( 320.8758792477383395, 66.21016270987722407, 0.000000000000000000 ) ) ;
#430 = EDGE_CURVE ( 'NONE', #830, #511, #598, .T. ) ;
#431 = ORIENTED_EDGE ( 'NONE', *, *, #468, .F. ) ;
#432 = VERTEX_POINT ( 'NONE', #925 ) ;
#433 = VECTOR ( 'NONE', #178, 1000.000000000000000 ) ;
#434 = UNCERTAINTY_MEASURE_WITH_UNIT (LENGTH_MEASURE( 1.000000000000000082E-05 ), #732, 'distance_accuracy_value', 'NONE');
#435 = VECTOR ( 'NONE', #186, 1000.000000000000000 ) ;
#436 = VERTEX_POINT ( 'NONE', #758 ) ;
#437 =( NAMED_UNIT ( * ) PLANE_ANGLE_UNIT ( ) SI_UNIT ( $, .RADIAN. ) );
#438 = STYLED_ITEM ( 'NONE', ( #521 ), #408 ) ;
#439 = ORIENTED_EDGE ( 'NONE', *, *, #917, .T. ) ;
#440 = ADVANCED_FACE ( 'NONE', ( #146 ), #5, .T. ) ;
#441 = AXIS2_PLACEMENT_3D ( 'NONE', #658, #390, #1066 ) ;
#442 = SURFACE_SIDE_STYLE ('',( #525 ) ) ;
#443 = AXIS2_PLACEMENT_3D ( 'NONE', #546, #202, #978 ) ;
#444 = STYLED_ITEM ( 'NONE', ( #181 ), #1051 ) ;
#445 = PLANE ( 'NONE',  #354 ) ;
#446 = CARTESIAN_POINT ( 'NONE',  ( 221.0978745002273911, -86.88983729012278445, 0.000000000000000000 ) ) ;
#447 = ORIENTED_EDGE ( 'NONE', *, *, #490, .F. ) ;
#448 = CYLINDRICAL_SURFACE ( 'NONE', #634, 1.999999999999996669 ) ;
#449 = CARTESIAN_POINT ( 'NONE',  ( -29.99999999999991473, -2.000000000000001776, 0.000000000000000000 ) ) ;
#450 = FACE_OUTER_BOUND ( 'NONE', #771, .T. ) ;
#451 = LINE ( 'NONE', #280, #194 ) ;
#452 = DIRECTION ( 'NONE',  ( 0.000000000000000000, 0.000000000000000000, -1.000000000000000000 ) ) ;
#453 = DIRECTION ( 'NONE',  ( 0.000000000000000000, 0.000000000000000000, 1.000000000000000000 ) ) ;
#454 = TOROIDAL_SURFACE ( 'NONE', #861, 10.00000000000000888, 1.999999999999996669 ) ;
#455 =( LENGTH_UNIT ( ) NAMED_UNIT ( * ) SI_UNIT ( .MILLI., .METRE. ) );
#456 = DIRECTION ( 'NONE',  ( 1.000000000000000000, 0.000000000000000000, 0.000000000000000000 ) ) ;
#457 = CIRCLE ( 'NONE', #886, 1.999999999999996669 ) ;
#458 =( NAMED_UNIT ( * ) SI_UNIT ( $, .STERADIAN. ) SOLID_ANGLE_UNIT ( ) );
#459 = PRESENTATION_LAYER_ASSIGNMENT (  '', '', ( #615 ) ) ;
#460 = CIRCLE ( 'NONE', #403, 1.999999999999996669 ) ;
#461 = SURFACE_STYLE_USAGE ( .BOTH. , #540 ) ;
#462 = AXIS2_PLACEMENT_3D ( 'NONE', #33, #395, #134 ) ;
#463 = FILL_AREA_STYLE_COLOUR ( '', #957 ) ;
#464 = DIRECTION ( 'NONE',  ( 0.000000000000000000, 0.000000000000000000, -1.000000000000000000 ) ) ;
#465 = MANIFOLD_SOLID_BREP ( 'Sweep1', #177 ) ;
#466 = DIRECTION ( 'NONE',  ( -0.000000000000000000, -0.000000000000000000, -1.000000000000000000 ) ) ;
#467 = CARTESIAN_POINT ( 'NONE',  ( 231.0978745002274479, 66.21016270987722407, 0.000000000000000000 ) ) ;
#468 = EDGE_CURVE ( 'NONE', #766, #175, #457, .T. ) ;
#469 = DIRECTION ( 'NONE',  ( 0.000000000000000000, 0.000000000000000000, 1.000000000000000000 ) ) ;
#470 = DIRECTION ( 'NONE',  ( 1.000000000000000000, 0.000000000000000000, 0.000000000000000000 ) ) ;
#471 = FACE_OUTER_BOUND ( 'NONE', #519, .T. ) ;
#472 = DIRECTION ( 'NONE',  ( 1.000000000000000000, 0.000000000000000000, 0.000000000000000000 ) ) ;
#473 = STYLED_ITEM ( 'NONE', ( #638 ), #298 ) ;
#474 = SURFACE_SIDE_STYLE ('',( #1093 ) ) ;
#475 = DIRECTION ( 'NONE',  ( 1.000000000000000000, 0.000000000000000000, 0.000000000000000000 ) ) ;
#476 =( GEOMETRIC_REPRESENTATION_CONTEXT ( 3 ) GLOBAL_UNCERTAINTY_ASSIGNED_CONTEXT ( ( #347 ) ) GLOBAL_UNIT_ASSIGNED_CONTEXT ( ( #853, #493, #237 ) ) REPRESENTATION_CONTEXT ( 'NONE', 'WORKASPACE' ) );
#477 = SURFACE_STYLE_FILL_AREA ( #318 ) ;
#478 = CARTESIAN_POINT ( 'NONE',  ( 320.8758792477382826, 76.21016270987723829, 0.000000000000000000 ) ) ;
#479 = AXIS2_PLACEMENT_3D ( 'NONE', #739, #833, #47 ) ;
#480 = CARTESIAN_POINT ( 'NONE',  ( 320.8758792477382826, 74.21016270987723829, 0.000000000000000000 ) ) ;
#481 = EDGE_LOOP ( 'NONE', ( #818, #570, #752, #1106, #594 ) ) ;
#482 = DIRECTION ( 'NONE',  ( 1.000000000000000000, 0.000000000000000000, 0.000000000000000000 ) ) ;
#483 = EDGE_LOOP ( 'NONE', ( #231, #332, #1086, #261, #680, #1024 ) ) ;
#484 = CYLINDRICAL_SURFACE ( 'NONE', #136, 2.000000000000001776 ) ;
#485 = FACE_OUTER_BOUND ( 'NONE', #481, .T. ) ;
#486 = ORIENTED_EDGE ( 'NONE', *, *, #875, .T. ) ;
#487 = DIRECTION ( 'NONE',  ( -1.000000000000000000, 0.000000000000000000, 0.000000000000000000 ) ) ;
#488 = FILL_AREA_STYLE_COLOUR ( '', #618 ) ;
#489 = EDGE_LOOP ( 'NONE', ( #225, #236, #932, #254, #927, #496 ) ) ;
#490 = EDGE_CURVE ( 'NONE', #1038, #664, #182, .T. ) ;
#491 = ORIENTED_EDGE ( 'NONE', *, *, #328, .F. ) ;
#492 = CIRCLE ( 'NONE', #845, 1.999999999999996669 ) ;
#493 =( NAMED_UNIT ( * ) PLANE_ANGLE_UNIT ( ) SI_UNIT ( $, .RADIAN. ) );
#494 = AXIS2_PLACEMENT_3D ( 'NONE', #207, #892, #472 ) ;
#495 = SURFACE_SIDE_STYLE ('',( #501 ) ) ;
#496 = ORIENTED_EDGE ( 'NONE', *, *, #355, .T. ) ;
#497 = EDGE_LOOP ( 'NONE', ( #166, #1097, #323, #247, #70 ) ) ;
#498 =( NAMED_UNIT ( * ) PLANE_ANGLE_UNIT ( ) SI_UNIT ( $, .RADIAN. ) );
#499 = ADVANCED_FACE ( 'NONE', ( #1040 ), #445, .T. ) ;
#500 = DIRECTION ( 'NONE',  ( 0.000000000000000000, 0.000000000000000000, 1.000000000000000000 ) ) ;
#501 = SURFACE_STYLE_FILL_AREA ( #358 ) ;
#502 = VERTEX_POINT ( 'NONE', #611 ) ;
#503 = AXIS2_PLACEMENT_3D ( 'NONE', #429, #527, #156 ) ;
#504 = EDGE_CURVE ( 'NONE', #678, #664, #1044, .T. ) ;
#505 = SURFACE_SIDE_STYLE ('',( #857 ) ) ;
#506 = AXIS2_PLACEMENT_3D ( 'NONE', #936, #232, #673 ) ;
#507 = LINE ( 'NONE', #597, #553 ) ;
#508 = ORIENTED_EDGE ( 'NONE', *, *, #490, .T. ) ;
#509 = DIRECTION ( 'NONE',  ( 0.000000000000000000, 0.000000000000000000, -1.000000000000000000 ) ) ;
#510 = AXIS2_PLACEMENT_3D ( 'NONE', #990, #556, #550 ) ;
#511 = VERTEX_POINT ( 'NONE', #959 ) ;
#512 = AXIS2_PLACEMENT_3D ( 'NONE', #478, #728, #986 ) ;
#513 = FACE_OUTER_BOUND ( 'NONE', #344, .T. ) ;
#514 =( GEOMETRIC_REPRESENTATION_CONTEXT ( 3 ) GLOBAL_UNCERTAINTY_ASSIGNED_CONTEXT ( ( #1047 ) ) GLOBAL_UNIT_ASSIGNED_CONTEXT ( ( #189, #627, #124 ) ) REPRESENTATION_CONTEXT ( 'NONE', 'WORKASPACE' ) );
#515 = UNCERTAINTY_MEASURE_WITH_UNIT (LENGTH_MEASURE( 1.000000000000000082E-05 ), #151, 'distance_accuracy_value', 'NONE');
#516 = ADVANCED_FACE ( 'NONE', ( #450 ), #979, .T. ) ;
#517 = DIRECTION ( 'NONE',  ( -1.000000000000000000, 0.000000000000000000, 0.000000000000000000 ) ) ;
#518 = SURFACE_SIDE_STYLE ('',( #406 ) ) ;
#519 = EDGE_LOOP ( 'NONE', ( #405, #1031, #572, #1041 ) ) ;
#520 =( NAMED_UNIT ( * ) SI_UNIT ( $, .STERADIAN. ) SOLID_ANGLE_UNIT ( ) );
#521 = PRESENTATION_STYLE_ASSIGNMENT (( #1023 ) ) ;
#522 = DIRECTION ( 'NONE',  ( -0.000000000000000000, -0.000000000000000000, -1.000000000000000000 ) ) ;
#523 = DIRECTION ( 'NONE',  ( 0.000000000000000000, 0.000000000000000000, 1.000000000000000000 ) ) ;
#524 = ORIENTED_EDGE ( 'NONE', *, *, #213, .T. ) ;
#525 = SURFACE_STYLE_FILL_AREA ( #691 ) ;
#526 = FILL_AREA_STYLE ('',( #1054 ) ) ;
#527 = DIRECTION ( 'NONE',  ( -0.000000000000000000, -0.000000000000000000, -1.000000000000000000 ) ) ;
#528 = UNCERTAINTY_MEASURE_WITH_UNIT (LENGTH_MEASURE( 1.000000000000000082E-05 ), #569, 'distance_accuracy_value', 'NONE');
#529 = CIRCLE ( 'NONE', #1065, 1.999999999999996669 ) ;
#530 = MECHANICAL_DESIGN_GEOMETRIC_PRESENTATION_REPRESENTATION (  '', ( #384 ), #709 ) ;
#531 =( NAMED_UNIT ( * ) PLANE_ANGLE_UNIT ( ) SI_UNIT ( $, .RADIAN. ) );
#532 = DIRECTION ( 'NONE',  ( 1.000000000000000000, 0.000000000000000000, 0.000000000000000000 ) ) ;
#533 = CYLINDRICAL_SURFACE ( 'NONE', #233, 1.999999999999996669 ) ;
#534 = EDGE_CURVE ( 'NONE', #1115, #361, #866, .T. ) ;
#535 = CARTESIAN_POINT ( 'NONE',  ( 320.8758792477382826, 76.21016270987723829, 0.000000000000000000 ) ) ;
#536 = DIRECTION ( 'NONE',  ( -1.000000000000000000, -0.000000000000000000, -0.000000000000000000 ) ) ;
#537 = FILL_AREA_STYLE ('',( #105 ) ) ;
#538 = CARTESIAN_POINT ( 'NONE',  ( 221.0978745002273342, -94.88983729012278445, 0.000000000000000000 ) ) ;
#539 =( NAMED_UNIT ( * ) SI_UNIT ( $, .STERADIAN. ) SOLID_ANGLE_UNIT ( ) );
#540 = SURFACE_SIDE_STYLE ('',( #883 ) ) ;
#541 = FACE_OUTER_BOUND ( 'NONE', #1021, .T. ) ;
#542 = COLOUR_RGB ( '',1.000000000000000000, 1.000000000000000000, 1.000000000000000000 ) ;
#543 = COLOUR_RGB ( '',1.000000000000000000, 1.000000000000000000, 1.000000000000000000 ) ;
#544 = CIRCLE ( 'NONE', #1050, 12.00000000000001066 ) ;
#545 = EDGE_CURVE ( 'NONE', #581, #222, #729, .T. ) ;
#546 = CARTESIAN_POINT ( 'NONE',  ( 231.0978745002274479, -86.88983729012267077, 0.000000000000000000 ) ) ;
#547 = DIRECTION ( 'NONE',  ( 1.000000000000000000, 0.000000000000000000, 0.000000000000000000 ) ) ;
#548 = DIRECTION ( 'NONE',  ( -1.000000000000000000, -0.000000000000000000, -0.000000000000000000 ) ) ;
#549 = DIRECTION ( 'NONE',  ( 1.000000000000000000, 0.000000000000000000, 0.000000000000000000 ) ) ;
#550 = DIRECTION ( 'NONE',  ( 0.000000000000000000, 0.000000000000000000, 1.000000000000000000 ) ) ;
#551 = CARTESIAN_POINT ( 'NONE',  ( -29.99999999999991473, 1.999999999999335643, 0.000000000000000000 ) ) ;
#552 = DIRECTION ( 'NONE',  ( -1.000000000000000000, 0.000000000000000000, 0.000000000000000000 ) ) ;
#553 = VECTOR ( 'NONE', #846, 1000.000000000000000 ) ;
#554 = SURFACE_STYLE_FILL_AREA ( #211 ) ;
#555 = CARTESIAN_POINT ( 'NONE',  ( 233.0978745002274479, -86.88983729012267077, 0.000000000000000000 ) ) ;
#556 = DIRECTION ( 'NONE',  ( 1.000000000000000000, -6.938893903907222067E-15, 0.000000000000000000 ) ) ;
#557 = AXIS2_PLACEMENT_3D ( 'NONE', #1056, #972, #452 ) ;
#558 = STYLED_ITEM ( 'NONE', ( #1103 ), #440 ) ;
#559 =( NAMED_UNIT ( * ) PLANE_ANGLE_UNIT ( ) SI_UNIT ( $, .RADIAN. ) );
#560 = PRESENTATION_LAYER_ASSIGNMENT (  '', '', ( #981 ) ) ;
#561 = SURFACE_STYLE_USAGE ( .BOTH. , #736 ) ;
#562 = AXIS2_PLACEMENT_3D ( 'NONE', #1027, #683, #1022 ) ;
#563 = DIRECTION ( 'NONE',  ( 0.000000000000000000, -1.000000000000000000, 0.000000000000000000 ) ) ;
#564 = SURFACE_SIDE_STYLE ('',( #810 ) ) ;
#565 = EDGE_CURVE ( 'NONE', #436, #159, #844, .T. ) ;
#566 = SURFACE_STYLE_FILL_AREA ( #1075 ) ;
#567 = DIRECTION ( 'NONE',  ( 0.000000000000000000, 0.000000000000000000, 1.000000000000000000 ) ) ;
#568 = VERTEX_POINT ( 'NONE', #480 ) ;
#569 =( LENGTH_UNIT ( ) NAMED_UNIT ( * ) SI_UNIT ( .MILLI., .METRE. ) );
#570 = ORIENTED_EDGE ( 'NONE', *, *, #126, .T. ) ;
#571 = EDGE_CURVE ( 'NONE', #361, #746, #416, .T. ) ;
#572 = ORIENTED_EDGE ( 'NONE', *, *, #578, .F. ) ;
#573 = AXIS2_PLACEMENT_3D ( 'NONE', #14, #624, #532 ) ;
#574 = DIRECTION ( 'NONE',  ( 0.000000000000000000, 0.000000000000000000, 1.000000000000000000 ) ) ;
#575 = DIRECTION ( 'NONE',  ( -9.064525021433354106E-17, 1.000000000000000000, 0.000000000000000000 ) ) ;
#576 = AXIS2_PLACEMENT_3D ( 'NONE', #241, #245, #584 ) ;
#577 = CIRCLE ( 'NONE', #42, 1.999999999999996669 ) ;
#578 = EDGE_CURVE ( 'NONE', #1108, #1077, #183, .T. ) ;
#579 = ORIENTED_EDGE ( 'NONE', *, *, #649, .F. ) ;
#580 = STYLED_ITEM ( 'NONE', ( #1128 ), #984 ) ;
#581 = VERTEX_POINT ( 'NONE', #738 ) ;
#582 = AXIS2_PLACEMENT_3D ( 'NONE', #730, #826, #326 ) ;
#583 = DIRECTION ( 'NONE',  ( 0.000000000000000000, 0.000000000000000000, 1.000000000000000000 ) ) ;
#584 = DIRECTION ( 'NONE',  ( 1.000000000000000000, 0.000000000000000000, 0.000000000000000000 ) ) ;
#585 = ORIENTED_EDGE ( 'NONE', *, *, #1094, .T. ) ;
#586 = EDGE_CURVE ( 'NONE', #350, #678, #811, .T. ) ;
#587 = ORIENTED_EDGE ( 'NONE', *, *, #622, .T. ) ;
#588 = DIRECTION ( 'NONE',  ( 0.000000000000000000, 0.000000000000000000, 1.000000000000000000 ) ) ;
#589 = DIRECTION ( 'NONE',  ( 1.000000000000000000, 5.551115123125777969E-15, 0.000000000000000000 ) ) ;
#590 = FILL_AREA_STYLE_COLOUR ( '', #256 ) ;
#591 = ORIENTED_EDGE ( 'NONE', *, *, #571, .T. ) ;
#592 = CIRCLE ( 'NONE', #679, 1.999999999999996669 ) ;
#593 = CARTESIAN_POINT ( 'NONE',  ( 0.2929758792477383800, -1.041454151261354433, 0.1156325458315896476 ) ) ;
#594 = ORIENTED_EDGE ( 'NONE', *, *, #504, .F. ) ;
#595 = COLOUR_RGB ( '',1.000000000000000000, 1.000000000000000000, 1.000000000000000000 ) ;
#596 = DIRECTION ( 'NONE',  ( 0.000000000000000000, 0.000000000000000000, 1.000000000000000000 ) ) ;
#597 = CARTESIAN_POINT ( 'NONE',  ( 241.0978745002274479, 76.21016270987723829, -2.000000000000001776 ) ) ;
#598 = CIRCLE ( 'NONE', #141, 1.999999999999996669 ) ;
#599 = ORIENTED_EDGE ( 'NONE', *, *, #681, .F. ) ;
#600 = ORIENTED_EDGE ( 'NONE', *, *, #126, .F. ) ;
#601 = VECTOR ( 'NONE', #15, 1000.000000000000000 ) ;
#602 = SURFACE_STYLE_FILL_AREA ( #1119 ) ;
#603 = UNCERTAINTY_MEASURE_WITH_UNIT (LENGTH_MEASURE( 1.000000000000000082E-05 ), #1130, 'distance_accuracy_value', 'NONE');
#604 = EDGE_LOOP ( 'NONE', ( #1025, #352, #396, #246, #266, #157 ) ) ;
#605 = ORIENTED_EDGE ( 'NONE', *, *, #25, .T. ) ;
#606 =( NAMED_UNIT ( * ) PLANE_ANGLE_UNIT ( ) SI_UNIT ( $, .RADIAN. ) );
#607 = CARTESIAN_POINT ( 'NONE',  ( -40.00000000000003553, -10.00000000000000888, 0.000000000000000000 ) ) ;
#608 = CARTESIAN_POINT ( 'NONE',  ( 241.0978745002273911, 66.21016270987722407, 0.000000000000000000 ) ) ;
#609 =( NAMED_UNIT ( * ) SI_UNIT ( $, .STERADIAN. ) SOLID_ANGLE_UNIT ( ) );
#610 = COLOUR_RGB ( '',1.000000000000000000, 1.000000000000000000, 1.000000000000000000 ) ;
#611 = CARTESIAN_POINT ( 'NONE',  ( -42.00000000000003553, -86.88983729012278445, 0.000000000000000000 ) ) ;
#612 = CARTESIAN_POINT ( 'NONE',  ( 0.000000000000000000, 0.000000000000000000, -2.000000000000001776 ) ) ;
#613 = EDGE_CURVE ( 'NONE', #1115, #432, #1016, .T. ) ;
#614 =( GEOMETRIC_REPRESENTATION_CONTEXT ( 3 ) GLOBAL_UNCERTAINTY_ASSIGNED_CONTEXT ( ( #1120 ) ) GLOBAL_UNIT_ASSIGNED_CONTEXT ( ( #219, #819, #802 ) ) REPRESENTATION_CONTEXT ( 'NONE', 'WORKASPACE' ) );
#615 = STYLED_ITEM ( 'NONE', ( #244 ), #750 ) ;
#616 = SURFACE_STYLE_FILL_AREA ( #205 ) ;
#617 = PRESENTATION_LAYER_ASSIGNMENT (  '', '', ( #384 ) ) ;
#618 = COLOUR_RGB ( '',1.000000000000000000, 1.000000000000000000, 1.000000000000000000 ) ;
#619 = SURFACE_STYLE_FILL_AREA ( #703 ) ;
#620 = PRESENTATION_STYLE_ASSIGNMENT (( #3 ) ) ;
#621 =( NAMED_UNIT ( * ) SI_UNIT ( $, .STERADIAN. ) SOLID_ANGLE_UNIT ( ) );
#622 = EDGE_CURVE ( 'NONE', #695, #147, #382, .T. ) ;
#623 = DIRECTION ( 'NONE',  ( 0.000000000000000000, 0.000000000000000000, 1.000000000000000000 ) ) ;
#624 = DIRECTION ( 'NONE',  ( 1.982541115402069794E-16, -1.000000000000000000, 0.000000000000000000 ) ) ;
#625 = CARTESIAN_POINT ( 'NONE',  ( 241.0978745002273911, 66.21016270987722407, 0.000000000000000000 ) ) ;
#626 = DIRECTION ( 'NONE',  ( 0.000000000000000000, -1.000000000000000000, 0.000000000000000000 ) ) ;
#627 =( NAMED_UNIT ( * ) PLANE_ANGLE_UNIT ( ) SI_UNIT ( $, .RADIAN. ) );
#628 = LINE ( 'NONE', #1134, #327 ) ;
#629 = SURFACE_SIDE_STYLE ('',( #281 ) ) ;
#630 = PRODUCT ( 'Path7', 'Path7', '', ( #676 ) ) ;
#631 = CARTESIAN_POINT ( 'NONE',  ( -40.00000000000003553, -10.00000000000000888, 0.000000000000000000 ) ) ;
#632 = MECHANICAL_DESIGN_GEOMETRIC_PRESENTATION_REPRESENTATION (  '', ( #438 ), #1062 ) ;
#633 = LINE ( 'NONE', #982, #1018 ) ;
#634 = AXIS2_PLACEMENT_3D ( 'NONE', #101, #282, #187 ) ;
#635 = EDGE_CURVE ( 'NONE', #766, #436, #544, .T. ) ;
#636 =( GEOMETRIC_REPRESENTATION_CONTEXT ( 3 ) GLOBAL_UNCERTAINTY_ASSIGNED_CONTEXT ( ( #856 ) ) GLOBAL_UNIT_ASSIGNED_CONTEXT ( ( #864, #342, #609 ) ) REPRESENTATION_CONTEXT ( 'NONE', 'WORKASPACE' ) );
#637 = FILL_AREA_STYLE_COLOUR ( '', #595 ) ;
#638 = PRESENTATION_STYLE_ASSIGNMENT (( #106 ) ) ;
#639 = CARTESIAN_POINT ( 'NONE',  ( -29.99999999999991473, -96.88983729012279866, 0.000000000000000000 ) ) ;
#640 = CARTESIAN_POINT ( 'NONE',  ( 241.0978745002274479, 78.21016270987701091, 0.000000000000000000 ) ) ;
#641 = DIRECTION ( 'NONE',  ( 1.000000000000000000, 0.000000000000000000, 0.000000000000000000 ) ) ;
#642 = CYLINDRICAL_SURFACE ( 'NONE', #807, 1.999999999999996669 ) ;
#643 = DIRECTION ( 'NONE',  ( 0.000000000000000000, 0.000000000000000000, 1.000000000000000000 ) ) ;
#644 = CARTESIAN_POINT ( 'NONE',  ( 320.8758792477382826, 76.21016270987723829, 0.000000000000000000 ) ) ;
#645 = FILL_AREA_STYLE ('',( #991 ) ) ;
#646 = UNCERTAINTY_MEASURE_WITH_UNIT (LENGTH_MEASURE( 1.000000000000000082E-05 ), #376, 'distance_accuracy_value', 'NONE');
#647 = DIRECTION ( 'NONE',  ( 0.000000000000000000, 0.000000000000000000, 1.000000000000000000 ) ) ;
#648 = VECTOR ( 'NONE', #1073, 1000.000000000000000 ) ;
#649 = EDGE_CURVE ( 'NONE', #910, #243, #529, .T. ) ;
#650 = DIRECTION ( 'NONE',  ( 1.000000000000000000, 0.000000000000000000, 0.000000000000000000 ) ) ;
#651 = TOROIDAL_SURFACE ( 'NONE', #506, 9.999999999999786837, 1.999999999999996669 ) ;
#652 = STYLED_ITEM ( 'NONE', ( #72 ), #465 ) ;
#653 = DIRECTION ( 'NONE',  ( 1.982541115402069794E-16, -1.000000000000000000, 0.000000000000000000 ) ) ;
#654 = TOROIDAL_SURFACE ( 'NONE', #1101, 10.00000000000000888, 1.999999999999996669 ) ;
#655 = CIRCLE ( 'NONE', #1084, 12.00000000000005862 ) ;
#656 = VERTEX_POINT ( 'NONE', #640 ) ;
#657 = CIRCLE ( 'NONE', #24, 1.999999999999996669 ) ;
#658 = CARTESIAN_POINT ( 'NONE',  ( 330.8758792477384532, 66.21016270987722407, 0.000000000000000000 ) ) ;
#659 = ORIENTED_EDGE ( 'NONE', *, *, #1060, .F. ) ;
#660 =( NAMED_UNIT ( * ) SI_UNIT ( $, .STERADIAN. ) SOLID_ANGLE_UNIT ( ) );
#661 = ORIENTED_EDGE ( 'NONE', *, *, #213, .F. ) ;
#662 = DIRECTION ( 'NONE',  ( 0.000000000000000000, 0.000000000000000000, 1.000000000000000000 ) ) ;
#663 = PRESENTATION_STYLE_ASSIGNMENT (( #224 ) ) ;
#664 = VERTEX_POINT ( 'NONE', #748 ) ;
#665 = EDGE_CURVE ( 'NONE', #931, #83, #492, .T. ) ;
#666 = ORIENTED_EDGE ( 'NONE', *, *, #430, .T. ) ;
#667 =( GEOMETRIC_REPRESENTATION_CONTEXT ( 3 ) GLOBAL_UNCERTAINTY_ASSIGNED_CONTEXT ( ( #388 ) ) GLOBAL_UNIT_ASSIGNED_CONTEXT ( ( #381, #559, #814 ) ) REPRESENTATION_CONTEXT ( 'NONE', 'WORKASPACE' ) );
#668 = ORIENTED_EDGE ( 'NONE', *, *, #816, .F. ) ;
#669 = PRESENTATION_LAYER_ASSIGNMENT (  '', '', ( #558 ) ) ;
#670 = ORIENTED_EDGE ( 'NONE', *, *, #565, .T. ) ;
#671 = ORIENTED_EDGE ( 'NONE', *, *, #355, .F. ) ;
#672 = DIRECTION ( 'NONE',  ( 1.000000000000000000, 0.000000000000000000, 0.000000000000000000 ) ) ;
#673 = DIRECTION ( 'NONE',  ( -1.000000000000000000, 0.000000000000000000, 0.000000000000000000 ) ) ;
#674 = ORIENTED_EDGE ( 'NONE', *, *, #635, .F. ) ;
#675 = DIRECTION ( 'NONE',  ( 1.000000000000000000, 0.000000000000000000, 0.000000000000000000 ) ) ;
#676 = PRODUCT_CONTEXT ( 'NONE', #19, 'mechanical' ) ;
#677 = CARTESIAN_POINT ( 'NONE',  ( 221.0978745002273342, -96.88983729012279866, 2.000000000000001776 ) ) ;
#678 = VERTEX_POINT ( 'NONE', #987 ) ;
#679 = AXIS2_PLACEMENT_3D ( 'NONE', #876, #198, #975 ) ;
#680 = ORIENTED_EDGE ( 'NONE', *, *, #1039, .F. ) ;
#681 = EDGE_CURVE ( 'NONE', #1090, #839, #688, .T. ) ;
#682 = COLOUR_RGB ( '',1.000000000000000000, 1.000000000000000000, 1.000000000000000000 ) ;
#683 = DIRECTION ( 'NONE',  ( 1.000000000000000000, -6.938893903907222067E-15, 0.000000000000000000 ) ) ;
#684 = CYLINDRICAL_SURFACE ( 'NONE', #97, 2.000000000000001776 ) ;
#685 = STYLED_ITEM ( 'NONE', ( #206 ), #338 ) ;
#686 = CARTESIAN_POINT ( 'NONE',  ( 320.8758792477382826, 76.21016270987723829, 2.000000000000001776 ) ) ;
#687 = ORIENTED_EDGE ( 'NONE', *, *, #1060, .T. ) ;
#688 = CIRCLE ( 'NONE', #510, 1.999999999999996669 ) ;
#689 = EDGE_LOOP ( 'NONE', ( #486, #43, #1006, #331, #426, #31 ) ) ;
#690 = CIRCLE ( 'NONE', #794, 7.999999999998459899 ) ;
#691 = FILL_AREA_STYLE ('',( #774 ) ) ;
#692 = AXIS2_PLACEMENT_3D ( 'NONE', #593, #413, #153 ) ;
#693 = UNCERTAINTY_MEASURE_WITH_UNIT (LENGTH_MEASURE( 1.000000000000000082E-05 ), #1112, 'distance_accuracy_value', 'NONE');
#694 = CARTESIAN_POINT ( 'NONE',  ( 231.0978745002274479, -86.88983729012267077, 0.000000000000000000 ) ) ;
#695 = VERTEX_POINT ( 'NONE', #905 ) ;
#696 = SURFACE_STYLE_USAGE ( .BOTH. , #1058 ) ;
#697 =( LENGTH_UNIT ( ) NAMED_UNIT ( * ) SI_UNIT ( .MILLI., .METRE. ) );
#698 = DIRECTION ( 'NONE',  ( 1.982541115402069794E-16, -1.000000000000000000, 0.000000000000000000 ) ) ;
#699 = EDGE_CURVE ( 'NONE', #839, #319, #708, .T. ) ;
#700 = CARTESIAN_POINT ( 'NONE',  ( 229.0978745002274479, -86.88983729012267077, 0.000000000000000000 ) ) ;
#701 =( NAMED_UNIT ( * ) PLANE_ANGLE_UNIT ( ) SI_UNIT ( $, .RADIAN. ) );
#702 =( LENGTH_UNIT ( ) NAMED_UNIT ( * ) SI_UNIT ( .MILLI., .METRE. ) );
#703 = FILL_AREA_STYLE ('',( #711 ) ) ;
#704 = SURFACE_STYLE_FILL_AREA ( #537 ) ;
#705 =( NAMED_UNIT ( * ) PLANE_ANGLE_UNIT ( ) SI_UNIT ( $, .RADIAN. ) );
#706 = CARTESIAN_POINT ( 'NONE',  ( -40.00000000000003553, -86.88983729012278445, 0.000000000000000000 ) ) ;
#707 =( GEOMETRIC_REPRESENTATION_CONTEXT ( 3 ) GLOBAL_UNCERTAINTY_ASSIGNED_CONTEXT ( ( #66 ) ) GLOBAL_UNIT_ASSIGNED_CONTEXT ( ( #383, #30, #310 ) ) REPRESENTATION_CONTEXT ( 'NONE', 'WORKASPACE' ) );
#708 = CIRCLE ( 'NONE', #792, 1.999999999999996669 ) ;
#709 =( GEOMETRIC_REPRESENTATION_CONTEXT ( 3 ) GLOBAL_UNCERTAINTY_ASSIGNED_CONTEXT ( ( #1126 ) ) GLOBAL_UNIT_ASSIGNED_CONTEXT ( ( #697, #86, #13 ) ) REPRESENTATION_CONTEXT ( 'NONE', 'WORKASPACE' ) );
#710 = COLOUR_RGB ( '',1.000000000000000000, 1.000000000000000000, 1.000000000000000000 ) ;
#711 = FILL_AREA_STYLE_COLOUR ( '', #724 ) ;
#712 =( NAMED_UNIT ( * ) PLANE_ANGLE_UNIT ( ) SI_UNIT ( $, .RADIAN. ) );
#713 = CYLINDRICAL_SURFACE ( 'NONE', #557, 1.999999999999996669 ) ;
#714 = SURFACE_SIDE_STYLE ('',( #1135 ) ) ;
#715 = EDGE_CURVE ( 'NONE', #175, #316, #577, .T. ) ;
#716 = CARTESIAN_POINT ( 'NONE',  ( 221.0978745002273342, -96.88983729012279866, 0.000000000000000000 ) ) ;
#717 = CARTESIAN_POINT ( 'NONE',  ( 241.0978745002274479, 76.21016270987723829, -2.000000000000001776 ) ) ;
#718 = SURFACE_STYLE_FILL_AREA ( #860 ) ;
#719 = CARTESIAN_POINT ( 'NONE',  ( 320.8758792477382826, 76.21016270987723829, 0.000000000000000000 ) ) ;
#720 = AXIS2_PLACEMENT_3D ( 'NONE', #36, #308, #908 ) ;
#721 = CARTESIAN_POINT ( 'NONE',  ( -41.99999999999926104, -10.00000000000000888, 0.000000000000000000 ) ) ;
#722 = CARTESIAN_POINT ( 'NONE',  ( -29.99999999999997158, -86.88983729012278445, 0.000000000000000000 ) ) ;
#723 = DIRECTION ( 'NONE',  ( 0.000000000000000000, -1.000000000000000000, 0.000000000000000000 ) ) ;
#724 = COLOUR_RGB ( '',1.000000000000000000, 1.000000000000000000, 1.000000000000000000 ) ;
#725 = CIRCLE ( 'NONE', #1122, 1.999999999999996669 ) ;
#726 = AXIS2_PLACEMENT_3D ( 'NONE', #20, #1069, #286 ) ;
#727 = MECHANICAL_DESIGN_GEOMETRIC_PRESENTATION_REPRESENTATION (  '', ( #60 ), #336 ) ;
#728 = DIRECTION ( 'NONE',  ( 1.000000000000000000, 0.000000000000000000, 0.000000000000000000 ) ) ;
#729 = LINE ( 'NONE', #994, #1015 ) ;
#730 = CARTESIAN_POINT ( 'NONE',  ( -29.99999999999997158, -10.00000000000000888, 0.000000000000000000 ) ) ;
#731 = ADVANCED_FACE ( 'NONE', ( #1007 ), #841, .T. ) ;
#732 =( LENGTH_UNIT ( ) NAMED_UNIT ( * ) SI_UNIT ( .MILLI., .METRE. ) );
#733 = DIRECTION ( 'NONE',  ( 1.982541115402069794E-16, -1.000000000000000000, 0.000000000000000000 ) ) ;
#734 = CARTESIAN_POINT ( 'NONE',  ( 332.8758792477384532, 31.21016270987730934, 0.000000000000000000 ) ) ;
#735 = STYLED_ITEM ( 'NONE', ( #10 ), #173 ) ;
#736 = SURFACE_SIDE_STYLE ('',( #477 ) ) ;
#737 = ORIENTED_EDGE ( 'NONE', *, *, #969, .F. ) ;
#738 = CARTESIAN_POINT ( 'NONE',  ( -40.00000000000003553, -10.00000000000000888, 2.000000000000001776 ) ) ;
#739 = CARTESIAN_POINT ( 'NONE',  ( 0.000000000000000000, 0.000000000000000000, 0.000000000000000000 ) ) ;
#740 = COLOUR_RGB ( '',1.000000000000000000, 1.000000000000000000, 1.000000000000000000 ) ;
#741 = ORIENTED_EDGE ( 'NONE', *, *, #534, .T. ) ;
#742 =( GEOMETRIC_REPRESENTATION_CONTEXT ( 3 ) GLOBAL_UNCERTAINTY_ASSIGNED_CONTEXT ( ( #693 ) ) GLOBAL_UNIT_ASSIGNED_CONTEXT ( ( #1112, #337, #409 ) ) REPRESENTATION_CONTEXT ( 'NONE', 'WORKASPACE' ) );
#743 =( NAMED_UNIT ( * ) PLANE_ANGLE_UNIT ( ) SI_UNIT ( $, .RADIAN. ) );
#744 =( GEOMETRIC_REPRESENTATION_CONTEXT ( 3 ) GLOBAL_UNCERTAINTY_ASSIGNED_CONTEXT ( ( #1032 ) ) GLOBAL_UNIT_ASSIGNED_CONTEXT ( ( #933, #701, #1042 ) ) REPRESENTATION_CONTEXT ( 'NONE', 'WORKASPACE' ) );
#745 = STYLED_ITEM ( 'NONE', ( #65 ), #965 ) ;
#746 = VERTEX_POINT ( 'NONE', #1013 ) ;
#747 =( GEOMETRIC_REPRESENTATION_CONTEXT ( 3 ) GLOBAL_UNCERTAINTY_ASSIGNED_CONTEXT ( ( #362 ) ) GLOBAL_UNIT_ASSIGNED_CONTEXT ( ( #702, #880, #93 ) ) REPRESENTATION_CONTEXT ( 'NONE', 'WORKASPACE' ) );
#748 = CARTESIAN_POINT ( 'NONE',  ( -29.99999999999991473, 0.000000000000000000, 2.000000000000001776 ) ) ;
#749 = DIRECTION ( 'NONE',  ( -1.000000000000000000, 0.000000000000000000, 0.000000000000000000 ) ) ;
#750 = ADVANCED_FACE ( 'NONE', ( #54 ), #654, .T. ) ;
#751 = ORIENTED_EDGE ( 'NONE', *, *, #365, .T. ) ;
#752 = ORIENTED_EDGE ( 'NONE', *, *, #613, .F. ) ;
#753 =( NAMED_UNIT ( * ) SI_UNIT ( $, .STERADIAN. ) SOLID_ANGLE_UNIT ( ) );
#754 = DIRECTION ( 'NONE',  ( -0.000000000000000000, -0.000000000000000000, -1.000000000000000000 ) ) ;
#755 =( NAMED_UNIT ( * ) SI_UNIT ( $, .STERADIAN. ) SOLID_ANGLE_UNIT ( ) );
#756 = ORIENTED_EDGE ( 'NONE', *, *, #699, .F. ) ;
#757 = VERTEX_POINT ( 'NONE', #150 ) ;
#758 = CARTESIAN_POINT ( 'NONE',  ( 233.0978745002274479, -86.88983729012267077, 0.000000000000000000 ) ) ;
#759 =( GEOMETRIC_REPRESENTATION_CONTEXT ( 3 ) GLOBAL_UNCERTAINTY_ASSIGNED_CONTEXT ( ( #170 ) ) GLOBAL_UNIT_ASSIGNED_CONTEXT ( ( #59, #606, #458 ) ) REPRESENTATION_CONTEXT ( 'NONE', 'WORKASPACE' ) );
#760 = STYLED_ITEM ( 'NONE', ( #832 ), #790 ) ;
#761 = EDGE_LOOP ( 'NONE', ( #46, #524, #415, #312, #827, #64 ) ) ;
#762 = ORIENTED_EDGE ( 'NONE', *, *, #249, .F. ) ;
#763 = CARTESIAN_POINT ( 'NONE',  ( 221.0978745002273911, -86.88983729012278445, 0.000000000000000000 ) ) ;
#764 = APPLICATION_PROTOCOL_DEFINITION ( 'draft international standard', 'automotive_design', 1998, #19 ) ;
#765 = CARTESIAN_POINT ( 'NONE',  ( 241.0978745002273911, 66.21016270987722407, 0.000000000000000000 ) ) ;
#766 = VERTEX_POINT ( 'NONE', #262 ) ;
#767 = SURFACE_STYLE_FILL_AREA ( #1092 ) ;
#768 = EDGE_LOOP ( 'NONE', ( #605, #62 ) ) ;
#769 = UNCERTAINTY_MEASURE_WITH_UNIT (LENGTH_MEASURE( 1.000000000000000082E-05 ), #248, 'distance_accuracy_value', 'NONE');
#770 = SURFACE_STYLE_USAGE ( .BOTH. , #867 ) ;
#771 = EDGE_LOOP ( 'NONE', ( #1116, #325, #939, #417, #1091 ) ) ;
#772 = SURFACE_STYLE_USAGE ( .BOTH. , #167 ) ;
#773 = EDGE_LOOP ( 'NONE', ( #600, #52, #35, #447, #762 ) ) ;
#774 = FILL_AREA_STYLE_COLOUR ( '', #869 ) ;
#775 = PRESENTATION_LAYER_ASSIGNMENT (  '', '', ( #685 ) ) ;
#776 = CARTESIAN_POINT ( 'NONE',  ( 332.8758792477384532, 66.21016270987722407, 0.000000000000000000 ) ) ;
#777 =( NAMED_UNIT ( * ) SI_UNIT ( $, .STERADIAN. ) SOLID_ANGLE_UNIT ( ) );
#778 =( GEOMETRIC_REPRESENTATION_CONTEXT ( 3 ) GLOBAL_UNCERTAINTY_ASSIGNED_CONTEXT ( ( #268 ) ) GLOBAL_UNIT_ASSIGNED_CONTEXT ( ( #420, #250, #520 ) ) REPRESENTATION_CONTEXT ( 'NONE', 'WORKASPACE' ) );
#779 = EDGE_CURVE ( 'NONE', #678, #350, #725, .T. ) ;
#780 = PRESENTATION_STYLE_ASSIGNMENT (( #78 ) ) ;
#781 = CIRCLE ( 'NONE', #928, 1.999999999999996669 ) ;
#782 = ORIENTED_EDGE ( 'NONE', *, *, #545, .F. ) ;
#783 = FACE_OUTER_BOUND ( 'NONE', #824, .T. ) ;
#784 = SURFACE_STYLE_USAGE ( .BOTH. , #296 ) ;
#785 = DIRECTION ( 'NONE',  ( 0.000000000000000000, 0.000000000000000000, 1.000000000000000000 ) ) ;
#786 = SURFACE_SIDE_STYLE ('',( #704 ) ) ;
#787 = FACE_OUTER_BOUND ( 'NONE', #489, .T. ) ;
#788 = DIRECTION ( 'NONE',  ( -1.000000000000000000, 0.000000000000000000, 0.000000000000000000 ) ) ;
#789 = DIRECTION ( 'NONE',  ( 0.000000000000000000, 0.000000000000000000, 1.000000000000000000 ) ) ;
#790 = ADVANCED_FACE ( 'NONE', ( #158 ), #218, .T. ) ;
#791 = CIRCLE ( 'NONE', #139, 11.99999999999992717 ) ;
#792 = AXIS2_PLACEMENT_3D ( 'NONE', #898, #1080, #1087 ) ;
#793 = CARTESIAN_POINT ( 'NONE',  ( 241.0978745002274479, 76.21016270987723829, 2.000000000000001776 ) ) ;
#794 = AXIS2_PLACEMENT_3D ( 'NONE', #212, #1064, #112 ) ;
#795 = AXIS2_PLACEMENT_3D ( 'NONE', #307, #754, #749 ) ;
#796 = DIRECTION ( 'NONE',  ( -1.000000000000000000, -0.000000000000000000, -0.000000000000000000 ) ) ;
#797 = LINE ( 'NONE', #700, #39 ) ;
#798 = DIRECTION ( 'NONE',  ( 1.000000000000000000, 0.000000000000000000, 0.000000000000000000 ) ) ;
#799 = CARTESIAN_POINT ( 'NONE',  ( -29.99999999999997158, -86.88983729012278445, 0.000000000000000000 ) ) ;
#800 = DIRECTION ( 'NONE',  ( -1.000000000000000000, 0.000000000000000000, 0.000000000000000000 ) ) ;
#801 = CARTESIAN_POINT ( 'NONE',  ( -40.00000000000003553, -86.88983729012278445, -2.000000000000001776 ) ) ;
#802 =( NAMED_UNIT ( * ) SI_UNIT ( $, .STERADIAN. ) SOLID_ANGLE_UNIT ( ) );
#803 = PRESENTATION_STYLE_ASSIGNMENT (( #104 ) ) ;
#804 = STYLED_ITEM ( 'NONE', ( #1113 ), #98 ) ;
#805 = CARTESIAN_POINT ( 'NONE',  ( 320.8758792477383395, 66.21016270987722407, 0.000000000000000000 ) ) ;
#806 = CARTESIAN_POINT ( 'NONE',  ( 241.0978745002274479, 74.21016270987701091, 0.000000000000000000 ) ) ;
#807 = AXIS2_PLACEMENT_3D ( 'NONE', #918, #389, #567 ) ;
#808 = CARTESIAN_POINT ( 'NONE',  ( 320.8758792477383395, 66.21016270987722407, 0.000000000000000000 ) ) ;
#809 = STYLED_ITEM ( 'NONE', ( #967 ), #516 ) ;
#810 = SURFACE_STYLE_FILL_AREA ( #1088 ) ;
#811 = CIRCLE ( 'NONE', #923, 1.999999999999996669 ) ;
#812 = ADVANCED_FACE ( 'NONE', ( #63 ), #448, .T. ) ;
#813 = UNCERTAINTY_MEASURE_WITH_UNIT (LENGTH_MEASURE( 1.000000000000000082E-05 ), #822, 'distance_accuracy_value', 'NONE');
#814 =( NAMED_UNIT ( * ) SI_UNIT ( $, .STERADIAN. ) SOLID_ANGLE_UNIT ( ) );
#815 = FILL_AREA_STYLE_COLOUR ( '', #740 ) ;
#816 = EDGE_CURVE ( 'NONE', #852, #1029, #201, .T. ) ;
#817 =( NAMED_UNIT ( * ) SI_UNIT ( $, .STERADIAN. ) SOLID_ANGLE_UNIT ( ) );
#818 = ORIENTED_EDGE ( 'NONE', *, *, #779, .T. ) ;
#819 =( NAMED_UNIT ( * ) PLANE_ANGLE_UNIT ( ) SI_UNIT ( $, .RADIAN. ) );
#820 = PLANE ( 'NONE',  #479 ) ;
#821 = VERTEX_POINT ( 'NONE', #1046 ) ;
#822 =( LENGTH_UNIT ( ) NAMED_UNIT ( * ) SI_UNIT ( .MILLI., .METRE. ) );
#823 = PRESENTATION_LAYER_ASSIGNMENT (  '', '', ( #735 ) ) ;
#824 = EDGE_LOOP ( 'NONE', ( #585, #127, #140, #671, #668, #659 ) ) ;
#825 = DIRECTION ( 'NONE',  ( 0.000000000000000000, 0.000000000000000000, 1.000000000000000000 ) ) ;
#826 = DIRECTION ( 'NONE',  ( 0.000000000000000000, 0.000000000000000000, 1.000000000000000000 ) ) ;
#827 = ORIENTED_EDGE ( 'NONE', *, *, #875, .F. ) ;
#828 = COLOUR_RGB ( '',1.000000000000000000, 1.000000000000000000, 1.000000000000000000 ) ;
#829 = MECHANICAL_DESIGN_GEOMETRIC_PRESENTATION_REPRESENTATION (  '', ( #745 ), #636 ) ;
#830 = VERTEX_POINT ( 'NONE', #360 ) ;
#831 = EDGE_CURVE ( 'NONE', #664, #1115, #370, .T. ) ;
#832 = PRESENTATION_STYLE_ASSIGNMENT (( #772 ) ) ;
#833 = DIRECTION ( 'NONE',  ( -1.000000000000000000, 0.000000000000000000, 0.000000000000000000 ) ) ;
#834 = SURFACE_STYLE_FILL_AREA ( #260 ) ;
#835 = ORIENTED_EDGE ( 'NONE', *, *, #1109, .F. ) ;
#836 = CARTESIAN_POINT ( 'NONE',  ( 0.000000000000000000, 0.000000000000000000, 0.000000000000000000 ) ) ;
#837 = ADVANCED_FACE ( 'NONE', ( #783 ), #868, .T. ) ;
#838 = FILL_AREA_STYLE_COLOUR ( '', #160 ) ;
#839 = VERTEX_POINT ( 'NONE', #806 ) ;
#840 = EDGE_LOOP ( 'NONE', ( #410, #263, #854, #579 ) ) ;
#841 = CYLINDRICAL_SURFACE ( 'NONE', #963, 1.999999999999996669 ) ;
#842 =( NAMED_UNIT ( * ) PLANE_ANGLE_UNIT ( ) SI_UNIT ( $, .RADIAN. ) );
#843 = SURFACE_STYLE_USAGE ( .BOTH. , #1043 ) ;
#844 = CIRCLE ( 'NONE', #273, 1.999999999999996669 ) ;
#845 = AXIS2_PLACEMENT_3D ( 'NONE', #644, #482, #17 ) ;
#846 = DIRECTION ( 'NONE',  ( 1.000000000000000000, 0.000000000000000000, 0.000000000000000000 ) ) ;
#847 = ORIENTED_EDGE ( 'NONE', *, *, #870, .F. ) ;
#848 = DIRECTION ( 'NONE',  ( 1.000000000000000000, 0.000000000000000000, 0.000000000000000000 ) ) ;
#849 = EDGE_LOOP ( 'NONE', ( #439, #393, #737, #756, #1083 ) ) ;
#850 = FILL_AREA_STYLE ('',( #1123 ) ) ;
#851 = EDGE_CURVE ( 'NONE', #568, #137, #164, .T. ) ;
#852 = VERTEX_POINT ( 'NONE', #801 ) ;
#853 =( LENGTH_UNIT ( ) NAMED_UNIT ( * ) SI_UNIT ( .MILLI., .METRE. ) );
#854 = ORIENTED_EDGE ( 'NONE', *, *, #29, .T. ) ;
#855 = CYLINDRICAL_SURFACE ( 'NONE', #888, 1.999999999999996669 ) ;
#856 = UNCERTAINTY_MEASURE_WITH_UNIT (LENGTH_MEASURE( 1.000000000000000082E-05 ), #864, 'distance_accuracy_value', 'NONE');
#857 = SURFACE_STYLE_FILL_AREA ( #1095 ) ;
#858 = CARTESIAN_POINT ( 'NONE',  ( 328.8758792477383963, 66.21016270987722407, 0.000000000000000000 ) ) ;
#859 = EDGE_CURVE ( 'NONE', #436, #1077, #292, .T. ) ;
#860 = FILL_AREA_STYLE ('',( #89 ) ) ;
#861 = AXIS2_PLACEMENT_3D ( 'NONE', #446, #364, #375 ) ;
#862 = ORIENTED_EDGE ( 'NONE', *, *, #107, .F. ) ;
#863 = AXIS2_PLACEMENT_3D ( 'NONE', #805, #895, #91 ) ;
#864 =( LENGTH_UNIT ( ) NAMED_UNIT ( * ) SI_UNIT ( .MILLI., .METRE. ) );
#865 = DIRECTION ( 'NONE',  ( 0.000000000000000000, 0.000000000000000000, 1.000000000000000000 ) ) ;
#866 = CIRCLE ( 'NONE', #380, 11.99999999999844924 ) ;
#867 = SURFACE_SIDE_STYLE ('',( #68 ) ) ;
#868 = CYLINDRICAL_SURFACE ( 'NONE', #314, 1.999999999999996669 ) ;
#869 = COLOUR_RGB ( '',1.000000000000000000, 1.000000000000000000, 1.000000000000000000 ) ;
#870 = EDGE_CURVE ( 'NONE', #757, #581, #460, .T. ) ;
#871 = DIRECTION ( 'NONE',  ( 0.000000000000000000, 0.000000000000000000, 1.000000000000000000 ) ) ;
#872 = DIRECTION ( 'NONE',  ( -1.000000000000000000, 0.000000000000000000, 0.000000000000000000 ) ) ;
#873 = UNCERTAINTY_MEASURE_WITH_UNIT (LENGTH_MEASURE( 1.000000000000000082E-05 ), #209, 'distance_accuracy_value', 'NONE');
#874 = CARTESIAN_POINT ( 'NONE',  ( -38.00000000000003553, -86.88983729012278445, 0.000000000000000000 ) ) ;
#875 = EDGE_CURVE ( 'NONE', #948, #821, #22, .T. ) ;
#876 = CARTESIAN_POINT ( 'NONE',  ( -29.99999999999991473, -96.88983729012279866, 0.000000000000000000 ) ) ;
#877 = SURFACE_STYLE_USAGE ( .BOTH. , #1057 ) ;
#878 = CARTESIAN_POINT ( 'NONE',  ( -40.00000000000003553, -10.00000000000000888, 0.000000000000000000 ) ) ;
#879 = AXIS2_PLACEMENT_3D ( 'NONE', #607, #1035, #953 ) ;
#880 =( NAMED_UNIT ( * ) PLANE_ANGLE_UNIT ( ) SI_UNIT ( $, .RADIAN. ) );
#881 = CIRCLE ( 'NONE', #720, 1.999999999999996669 ) ;
#882 = EDGE_CURVE ( 'NONE', #159, #436, #357, .T. ) ;
#883 = SURFACE_STYLE_FILL_AREA ( #184 ) ;
#884 = DIRECTION ( 'NONE',  ( 0.000000000000000000, -1.000000000000000000, 0.000000000000000000 ) ) ;
#885 = STYLED_ITEM ( 'NONE', ( #909 ), #373 ) ;
#886 = AXIS2_PLACEMENT_3D ( 'NONE', #171, #94, #865 ) ;
#887 = SURFACE_STYLE_FILL_AREA ( #192 ) ;
#888 = AXIS2_PLACEMENT_3D ( 'NONE', #958, #672, #71 ) ;
#889 =( GEOMETRIC_REPRESENTATION_CONTEXT ( 3 ) GLOBAL_UNCERTAINTY_ASSIGNED_CONTEXT ( ( #188 ) ) GLOBAL_UNIT_ASSIGNED_CONTEXT ( ( #1107, #842, #1099 ) ) REPRESENTATION_CONTEXT ( 'NONE', 'WORKASPACE' ) );
#890 = FACE_OUTER_BOUND ( 'NONE', #840, .T. ) ;
#891 =( NAMED_UNIT ( * ) SI_UNIT ( $, .STERADIAN. ) SOLID_ANGLE_UNIT ( ) );
#892 = DIRECTION ( 'NONE',  ( 0.000000000000000000, 0.000000000000000000, 1.000000000000000000 ) ) ;
#893 = EDGE_CURVE ( 'NONE', #1038, #757, #690, .T. ) ;
#894 = PRESENTATION_STYLE_ASSIGNMENT (( #297 ) ) ;
#895 = DIRECTION ( 'NONE',  ( -0.000000000000000000, -0.000000000000000000, -1.000000000000000000 ) ) ;
#896 = CARTESIAN_POINT ( 'NONE',  ( 320.8758792477382826, 78.21016270987701091, 0.000000000000000000 ) ) ;
#897 = EDGE_CURVE ( 'NONE', #316, #159, #102, .T. ) ;
#898 = CARTESIAN_POINT ( 'NONE',  ( 241.0978745002274479, 76.21016270987701091, 0.000000000000000000 ) ) ;
#899 = SURFACE_STYLE_USAGE ( .BOTH. , #474 ) ;
#900 = MECHANICAL_DESIGN_GEOMETRIC_PRESENTATION_REPRESENTATION (  '', ( #955 ), #115 ) ;
#901 = CARTESIAN_POINT ( 'NONE',  ( -40.00000000000003553, -86.88983729012278445, 2.000000000000001776 ) ) ;
#902 = SURFACE_STYLE_USAGE ( .BOTH. , #227 ) ;
#903 = DIRECTION ( 'NONE',  ( 0.000000000000000000, 0.000000000000000000, 1.000000000000000000 ) ) ;
#904 = MECHANICAL_DESIGN_GEOMETRIC_PRESENTATION_REPRESENTATION (  '', ( #685 ), #414 ) ;
#905 = CARTESIAN_POINT ( 'NONE',  ( 332.8758792477384532, 66.21016270987722407, 0.000000000000000000 ) ) ;
#906 = CARTESIAN_POINT ( 'NONE',  ( 229.0978745002274479, 66.21016270987722407, 0.000000000000000000 ) ) ;
#907 = AXIS2_PLACEMENT_3D ( 'NONE', #467, #378, #643 ) ;
#908 = DIRECTION ( 'NONE',  ( 0.000000000000000000, 0.000000000000000000, 1.000000000000000000 ) ) ;
#909 = PRESENTATION_STYLE_ASSIGNMENT (( #561 ) ) ;
#910 = VERTEX_POINT ( 'NONE', #385 ) ;
#911 = CARTESIAN_POINT ( 'NONE',  ( -40.00000000000003553, -10.00000000000000888, 0.000000000000000000 ) ) ;
#912 = EDGE_CURVE ( 'NONE', #147, #695, #1102, .T. ) ;
#913 = CARTESIAN_POINT ( 'NONE',  ( -40.00000000000003553, -86.88983729012278445, 0.000000000000000000 ) ) ;
#914 = ORIENTED_EDGE ( 'NONE', *, *, #586, .F. ) ;
#915 = CARTESIAN_POINT ( 'NONE',  ( 231.0978745002274479, 66.21016270987722407, 0.000000000000000000 ) ) ;
#916 = ORIENTED_EDGE ( 'NONE', *, *, #635, .T. ) ;
#917 = EDGE_CURVE ( 'NONE', #1077, #1108, #58, .T. ) ;
#918 = CARTESIAN_POINT ( 'NONE',  ( 0.000000000000000000, 0.000000000000000000, 0.000000000000000000 ) ) ;
#919 = ORIENTED_EDGE ( 'NONE', *, *, #468, .T. ) ;
#920 = SURFACE_STYLE_USAGE ( .BOTH. , #518 ) ;
#921 = DIRECTION ( 'NONE',  ( 1.000000000000000000, -6.938893903907222067E-15, 0.000000000000000000 ) ) ;
#922 = AXIS2_PLACEMENT_3D ( 'NONE', #913, #1076, #299 ) ;
#923 = AXIS2_PLACEMENT_3D ( 'NONE', #402, #387, #1070 ) ;
#924 = TOROIDAL_SURFACE ( 'NONE', #1053, 9.999999999998454570, 1.999999999999996669 ) ;
#925 = CARTESIAN_POINT ( 'NONE',  ( -29.99999999999991473, 0.000000000000000000, -2.000000000000001776 ) ) ;
#926 = AXIS2_PLACEMENT_3D ( 'NONE', #535, #470, #623 ) ;
#927 = ORIENTED_EDGE ( 'NONE', *, *, #163, .F. ) ;
#928 = AXIS2_PLACEMENT_3D ( 'NONE', #1071, #921, #302 ) ;
#929 = ORIENTED_EDGE ( 'NONE', *, *, #4, .T. ) ;
#930 = CARTESIAN_POINT ( 'NONE',  ( 241.0978745002274479, 76.21016270987723829, 0.000000000000000000 ) ) ;
#931 = VERTEX_POINT ( 'NONE', #896 ) ;
#932 = ORIENTED_EDGE ( 'NONE', *, *, #430, .F. ) ;
#933 =( LENGTH_UNIT ( ) NAMED_UNIT ( * ) SI_UNIT ( .MILLI., .METRE. ) );
#934 = EDGE_CURVE ( 'NONE', #502, #511, #655, .T. ) ;
#935 = SURFACE_STYLE_FILL_AREA ( #51 ) ;
#936 = CARTESIAN_POINT ( 'NONE',  ( 320.8758792477383395, 66.21016270987722407, 0.000000000000000000 ) ) ;
#937 = ORIENTED_EDGE ( 'NONE', *, *, #12, .T. ) ;
#938 = DIRECTION ( 'NONE',  ( -1.000000000000000000, 0.000000000000000000, 0.000000000000000000 ) ) ;
#939 = ORIENTED_EDGE ( 'NONE', *, *, #1019, .T. ) ;
#940 = DIRECTION ( 'NONE',  ( 0.000000000000000000, 0.000000000000000000, 1.000000000000000000 ) ) ;
#941 = PRESENTATION_LAYER_ASSIGNMENT (  '', '', ( #438 ) ) ;
#942 = UNCERTAINTY_MEASURE_WITH_UNIT (LENGTH_MEASURE( 1.000000000000000082E-05 ), #279, 'distance_accuracy_value', 'NONE');
#943 = MECHANICAL_DESIGN_GEOMETRIC_PRESENTATION_REPRESENTATION (  '', ( #558 ), #742 ) ;
#944 = EDGE_LOOP ( 'NONE', ( #674, #919, #424, #349, #1008 ) ) ;
#945 = AXIS2_PLACEMENT_3D ( 'NONE', #954, #872, #523 ) ;
#946 = DIRECTION ( 'NONE',  ( 0.000000000000000000, 0.000000000000000000, 1.000000000000000000 ) ) ;
#947 = AXIS2_PLACEMENT_3D ( 'NONE', #1131, #547, #289 ) ;
#948 = VERTEX_POINT ( 'NONE', #363 ) ;
#949 = LINE ( 'NONE', #776, #433 ) ;
#950 = EDGE_LOOP ( 'NONE', ( #587, #132, #242, #53 ) ) ;
#951 = FILL_AREA_STYLE_COLOUR ( '', #997 ) ;
#952 = PRESENTATION_STYLE_ASSIGNMENT (( #1132 ) ) ;
#953 = DIRECTION ( 'NONE',  ( 0.000000000000000000, 0.000000000000000000, 1.000000000000000000 ) ) ;
#954 = CARTESIAN_POINT ( 'NONE',  ( -29.99999999999991473, 0.000000000000000000, 0.000000000000000000 ) ) ;
#955 = STYLED_ITEM ( 'NONE', ( #620 ), #138 ) ;
#956 = PRODUCT_DEFINITION_CONTEXT ( 'detailed design', #148, 'design' ) ;
#957 = COLOUR_RGB ( '',1.000000000000000000, 1.000000000000000000, 1.000000000000000000 ) ;
#958 = CARTESIAN_POINT ( 'NONE',  ( 241.0978745002274479, 76.21016270987723829, 0.000000000000000000 ) ) ;
#959 = CARTESIAN_POINT ( 'NONE',  ( -29.99999999999991473, -98.88983729012279866, 0.000000000000000000 ) ) ;
#960 = MECHANICAL_DESIGN_GEOMETRIC_PRESENTATION_REPRESENTATION (  '', ( #119 ), #707 ) ;
#961 = CYLINDRICAL_SURFACE ( 'NONE', #573, 2.000000000000001776 ) ;
#962 = AXIS2_PLACEMENT_3D ( 'NONE', #193, #788, #785 ) ;
#963 = AXIS2_PLACEMENT_3D ( 'NONE', #930, #848, #509 ) ;
#964 = DIRECTION ( 'NONE',  ( -0.000000000000000000, -0.000000000000000000, -1.000000000000000000 ) ) ;
#965 = ADVANCED_FACE ( 'NONE', ( #513 ), #855, .T. ) ;
#966 = FACE_OUTER_BOUND ( 'NONE', #604, .T. ) ;
#967 = PRESENTATION_STYLE_ASSIGNMENT (( #274 ) ) ;
#968 = CARTESIAN_POINT ( 'NONE',  ( 229.0978745002274479, -86.88983729012267077, 0.000000000000000000 ) ) ;
#969 = EDGE_CURVE ( 'NONE', #319, #656, #1017, .T. ) ;
#970 = FILL_AREA_STYLE_COLOUR ( '', #710 ) ;
#971 = FACE_OUTER_BOUND ( 'NONE', #950, .T. ) ;
#972 = DIRECTION ( 'NONE',  ( 1.000000000000000000, 0.000000000000000000, 0.000000000000000000 ) ) ;
#973 = STYLED_ITEM ( 'NONE', ( #894 ), #226 ) ;
#974 = EDGE_CURVE ( 'NONE', #511, #948, #1036, .T. ) ;
#975 = DIRECTION ( 'NONE',  ( 0.000000000000000000, 0.000000000000000000, 1.000000000000000000 ) ) ;
#976 = ADVANCED_BREP_SHAPE_REPRESENTATION ( 'Path7', ( #465, #692 ), #889 ) ;
#977 = CARTESIAN_POINT ( 'NONE',  ( 0.000000000000000000, 0.000000000000000000, 0.000000000000000000 ) ) ;
#978 = DIRECTION ( 'NONE',  ( 0.000000000000000000, 0.000000000000000000, 1.000000000000000000 ) ) ;
#979 = TOROIDAL_SURFACE ( 'NONE', #121, 9.999999999999786837, 1.999999999999996669 ) ;
#980 = PRESENTATION_LAYER_ASSIGNMENT (  '', '', ( #809 ) ) ;
#981 = STYLED_ITEM ( 'NONE', ( #1052 ), #812 ) ;
#982 = CARTESIAN_POINT ( 'NONE',  ( -40.00000000000003553, -10.00000000000000888, -2.000000000000001776 ) ) ;
#983 = COLOUR_RGB ( '',1.000000000000000000, 1.000000000000000000, 1.000000000000000000 ) ;
#984 = ADVANCED_FACE ( 'NONE', ( #264 ), #924, .T. ) ;
#985 =( NAMED_UNIT ( * ) SI_UNIT ( $, .STERADIAN. ) SOLID_ANGLE_UNIT ( ) );
#986 = DIRECTION ( 'NONE',  ( 0.000000000000000000, 0.000000000000000000, 1.000000000000000000 ) ) ;
#987 = CARTESIAN_POINT ( 'NONE',  ( 0.000000000000000000, 0.000000000000000000, 2.000000000000001776 ) ) ;
#988 = ADVANCED_FACE ( 'NONE', ( #161 ), #356, .T. ) ;
#989 = DIRECTION ( 'NONE',  ( 0.000000000000000000, 0.000000000000000000, 1.000000000000000000 ) ) ;
#990 = CARTESIAN_POINT ( 'NONE',  ( 241.0978745002274479, 76.21016270987701091, 0.000000000000000000 ) ) ;
#991 = FILL_AREA_STYLE_COLOUR ( '', #315 ) ;
#992 = COLOUR_RGB ( '',1.000000000000000000, 1.000000000000000000, 1.000000000000000000 ) ;
#993 = LINE ( 'NONE', #858, #435 ) ;
#994 = CARTESIAN_POINT ( 'NONE',  ( -40.00000000000003553, -10.00000000000000888, 2.000000000000001776 ) ) ;
#995 =( NAMED_UNIT ( * ) SI_UNIT ( $, .STERADIAN. ) SOLID_ANGLE_UNIT ( ) );
#996 = PRESENTATION_LAYER_ASSIGNMENT (  '', '', ( #290 ) ) ;
#997 = COLOUR_RGB ( '',1.000000000000000000, 1.000000000000000000, 1.000000000000000000 ) ;
#998 = CIRCLE ( 'NONE', #1125, 1.999999999999996669 ) ;
#999 = CARTESIAN_POINT ( 'NONE',  ( 221.0978745002273342, -96.88983729012279866, -2.000000000000001776 ) ) ;
#1000 =( NAMED_UNIT ( * ) PLANE_ANGLE_UNIT ( ) SI_UNIT ( $, .RADIAN. ) );
#1001 = ORIENTED_EDGE ( 'NONE', *, *, #1003, .T. ) ;
#1002 = CARTESIAN_POINT ( 'NONE',  ( 221.0978745002273911, -86.88983729012278445, 0.000000000000000000 ) ) ;
#1003 = EDGE_CURVE ( 'NONE', #61, #766, #998, .T. ) ;
#1004 = ORIENTED_EDGE ( 'NONE', *, *, #67, .T. ) ;
#1005 = FILL_AREA_STYLE_COLOUR ( '', #542 ) ;
#1006 = ORIENTED_EDGE ( 'NONE', *, *, #107, .T. ) ;
#1007 = FACE_OUTER_BOUND ( 'NONE', #483, .T. ) ;
#1008 = ORIENTED_EDGE ( 'NONE', *, *, #565, .F. ) ;
#1009 = CIRCLE ( 'NONE', #270, 1.999999999999996669 ) ;
#1010 =( GEOMETRIC_REPRESENTATION_CONTEXT ( 3 ) GLOBAL_UNCERTAINTY_ASSIGNED_CONTEXT ( ( #813 ) ) GLOBAL_UNIT_ASSIGNED_CONTEXT ( ( #822, #743, #660 ) ) REPRESENTATION_CONTEXT ( 'NONE', 'WORKASPACE' ) );
#1011 = ORIENTED_EDGE ( 'NONE', *, *, #897, .F. ) ;
#1012 = ORIENTED_EDGE ( 'NONE', *, *, #831, .T. ) ;
#1013 = CARTESIAN_POINT ( 'NONE',  ( -40.00000000000003553, -10.00000000000000888, -2.000000000000001776 ) ) ;
#1014 = CIRCLE ( 'NONE', #180, 1.999999999999996669 ) ;
#1015 = VECTOR ( 'NONE', #563, 1000.000000000000000 ) ;
#1016 = CIRCLE ( 'NONE', #369, 1.999999999999996669 ) ;
#1017 = CIRCLE ( 'NONE', #562, 1.999999999999996669 ) ;
#1018 = VECTOR ( 'NONE', #1048, 1000.000000000000000 ) ;
#1019 = EDGE_CURVE ( 'NONE', #83, #568, #293, .T. ) ;
#1020 = EDGE_LOOP ( 'NONE', ( #782, #937, #591, #687, #661, #1089 ) ) ;
#1021 = EDGE_LOOP ( 'NONE', ( #862, #666, #152, #751, #431, #339 ) ) ;
#1022 = DIRECTION ( 'NONE',  ( 0.000000000000000000, 0.000000000000000000, 1.000000000000000000 ) ) ;
#1023 = SURFACE_STYLE_USAGE ( .BOTH. , #495 ) ;
#1024 = ORIENTED_EDGE ( 'NONE', *, *, #4, .F. ) ;
#1025 = ORIENTED_EDGE ( 'NONE', *, *, #534, .F. ) ;
#1026 = APPLICATION_PROTOCOL_DEFINITION ( 'draft international standard', 'automotive_design', 1998, #148 ) ;
#1027 = CARTESIAN_POINT ( 'NONE',  ( 241.0978745002274479, 76.21016270987701091, 0.000000000000000000 ) ) ;
#1028 = EDGE_LOOP ( 'NONE', ( #1012, #741, #1105, #847, #38, #508 ) ) ;
#1029 = VERTEX_POINT ( 'NONE', #874 ) ;
#1030 = PRESENTATION_STYLE_ASSIGNMENT (( #340 ) ) ;
#1031 = ORIENTED_EDGE ( 'NONE', *, *, #859, .T. ) ;
#1032 = UNCERTAINTY_MEASURE_WITH_UNIT (LENGTH_MEASURE( 1.000000000000000082E-05 ), #933, 'distance_accuracy_value', 'NONE');
#1033 = FILL_AREA_STYLE_COLOUR ( '', #543 ) ;
#1034 =( GEOMETRIC_REPRESENTATION_CONTEXT ( 3 ) GLOBAL_UNCERTAINTY_ASSIGNED_CONTEXT ( ( #251 ) ) GLOBAL_UNIT_ASSIGNED_CONTEXT ( ( #179, #1124, #777 ) ) REPRESENTATION_CONTEXT ( 'NONE', 'WORKASPACE' ) );
#1035 = DIRECTION ( 'NONE',  ( 0.000000000000000000, -1.000000000000000000, 0.000000000000000000 ) ) ;
#1036 = CIRCLE ( 'NONE', #144, 1.999999999999996669 ) ;
#1037 = TOROIDAL_SURFACE ( 'NONE', #240, 10.00000000000006395, 1.999999999999996669 ) ;
#1038 = VERTEX_POINT ( 'NONE', #449 ) ;
#1039 = EDGE_CURVE ( 'NONE', #137, #931, #657, .T. ) ;
#1040 = FACE_OUTER_BOUND ( 'NONE', #768, .T. ) ;
#1041 = ORIENTED_EDGE ( 'NONE', *, *, #322, .F. ) ;
#1042 =( NAMED_UNIT ( * ) SI_UNIT ( $, .STERADIAN. ) SOLID_ANGLE_UNIT ( ) );
#1043 = SURFACE_SIDE_STYLE ('',( #935 ) ) ;
#1044 = LINE ( 'NONE', #269, #55 ) ;
#1045 = FILL_AREA_STYLE_COLOUR ( '', #309 ) ;
#1046 = CARTESIAN_POINT ( 'NONE',  ( -29.99999999999991473, -94.88983729012278445, 0.000000000000000000 ) ) ;
#1047 = UNCERTAINTY_MEASURE_WITH_UNIT (LENGTH_MEASURE( 1.000000000000000082E-05 ), #189, 'distance_accuracy_value', 'NONE');
#1048 = DIRECTION ( 'NONE',  ( 0.000000000000000000, -1.000000000000000000, 0.000000000000000000 ) ) ;
#1049 = SURFACE_SIDE_STYLE ('',( #619 ) ) ;
#1050 = AXIS2_PLACEMENT_3D ( 'NONE', #1002, #469, #301 ) ;
#1051 = ADVANCED_FACE ( 'NONE', ( #787 ), #1037, .T. ) ;
#1052 = PRESENTATION_STYLE_ASSIGNMENT (( #76 ) ) ;
#1053 = AXIS2_PLACEMENT_3D ( 'NONE', #169, #940, #176 ) ;
#1054 = FILL_AREA_STYLE_COLOUR ( '', #828 ) ;
#1055 =( LENGTH_UNIT ( ) NAMED_UNIT ( * ) SI_UNIT ( .MILLI., .METRE. ) );
#1056 = CARTESIAN_POINT ( 'NONE',  ( -29.99999999999991473, -96.88983729012279866, 0.000000000000000000 ) ) ;
#1057 = SURFACE_SIDE_STYLE ('',( #366 ) ) ;
#1058 = SURFACE_SIDE_STYLE ('',( #718 ) ) ;
#1059 = DIRECTION ( 'NONE',  ( 0.000000000000000000, 0.000000000000000000, 1.000000000000000000 ) ) ;
#1060 = EDGE_CURVE ( 'NONE', #746, #852, #633, .T. ) ;
#1061 = CARTESIAN_POINT ( 'NONE',  ( 320.8758792477382826, 76.21016270987723829, -2.000000000000001776 ) ) ;
#1062 =( GEOMETRIC_REPRESENTATION_CONTEXT ( 3 ) GLOBAL_UNCERTAINTY_ASSIGNED_CONTEXT ( ( #515 ) ) GLOBAL_UNIT_ASSIGNED_CONTEXT ( ( #151, #348, #755 ) ) REPRESENTATION_CONTEXT ( 'NONE', 'WORKASPACE' ) );
#1063 = DIRECTION ( 'NONE',  ( -9.064525021433354106E-17, 1.000000000000000000, 0.000000000000000000 ) ) ;
#1064 = DIRECTION ( 'NONE',  ( 0.000000000000000000, 0.000000000000000000, 1.000000000000000000 ) ) ;
#1065 = AXIS2_PLACEMENT_3D ( 'NONE', #223, #733, #294 ) ;
#1066 = DIRECTION ( 'NONE',  ( 0.000000000000000000, 0.000000000000000000, 1.000000000000000000 ) ) ;
#1067 = COLOUR_RGB ( '',1.000000000000000000, 1.000000000000000000, 1.000000000000000000 ) ;
#1068 = PRODUCT_RELATED_PRODUCT_CATEGORY ( 'part', '', ( #630 ) ) ;
#1069 = DIRECTION ( 'NONE',  ( 0.000000000000000000, -1.000000000000000000, 0.000000000000000000 ) ) ;
#1070 = DIRECTION ( 'NONE',  ( 0.000000000000000000, 0.000000000000000000, 1.000000000000000000 ) ) ;
#1071 = CARTESIAN_POINT ( 'NONE',  ( 241.0978745002274479, 76.21016270987701091, 0.000000000000000000 ) ) ;
#1072 = UNCERTAINTY_MEASURE_WITH_UNIT (LENGTH_MEASURE( 1.000000000000000082E-05 ), #1055, 'distance_accuracy_value', 'NONE');
#1073 = DIRECTION ( 'NONE',  ( 1.000000000000000000, 0.000000000000000000, 0.000000000000000000 ) ) ;
#1074 =( NAMED_UNIT ( * ) SI_UNIT ( $, .STERADIAN. ) SOLID_ANGLE_UNIT ( ) );
#1075 = FILL_AREA_STYLE ('',( #118 ) ) ;
#1076 = DIRECTION ( 'NONE',  ( 0.000000000000000000, -1.000000000000000000, 0.000000000000000000 ) ) ;
#1077 = VERTEX_POINT ( 'NONE', #272 ) ;
#1078 = ADVANCED_FACE ( 'NONE', ( #966 ), #9, .T. ) ;
#1079 = PRESENTATION_LAYER_ASSIGNMENT (  '', '', ( #473 ) ) ;
#1080 = DIRECTION ( 'NONE',  ( 1.000000000000000000, -6.938893903907222067E-15, 0.000000000000000000 ) ) ;
#1081 = STYLED_ITEM ( 'NONE', ( #952 ), #499 ) ;
#1082 = PRESENTATION_LAYER_ASSIGNMENT (  '', '', ( #760 ) ) ;
#1083 = ORIENTED_EDGE ( 'NONE', *, *, #67, .F. ) ;
#1084 = AXIS2_PLACEMENT_3D ( 'NONE', #722, #108, #549 ) ;
#1085 = PRESENTATION_LAYER_ASSIGNMENT (  '', '', ( #60 ) ) ;
#1086 = ORIENTED_EDGE ( 'NONE', *, *, #197, .T. ) ;
#1087 = DIRECTION ( 'NONE',  ( 0.000000000000000000, 0.000000000000000000, 1.000000000000000000 ) ) ;
#1088 = FILL_AREA_STYLE ('',( #488 ) ) ;
#1089 = ORIENTED_EDGE ( 'NONE', *, *, #379, .F. ) ;
#1090 = VERTEX_POINT ( 'NONE', #793 ) ;
#1091 = ORIENTED_EDGE ( 'NONE', *, *, #622, .F. ) ;
#1092 = FILL_AREA_STYLE ('',( #69 ) ) ;
#1093 = SURFACE_STYLE_FILL_AREA ( #645 ) ;
#1094 = EDGE_CURVE ( 'NONE', #746, #757, #185, .T. ) ;
#1095 = FILL_AREA_STYLE ('',( #590 ) ) ;
#1096 = EDGE_LOOP ( 'NONE', ( #1001, #916, #359, #1011, #400 ) ) ;
#1097 = ORIENTED_EDGE ( 'NONE', *, *, #283, .T. ) ;
#1098 = FILL_AREA_STYLE ('',( #425 ) ) ;
#1099 =( NAMED_UNIT ( * ) SI_UNIT ( $, .STERADIAN. ) SOLID_ANGLE_UNIT ( ) );
#1100 = FILL_AREA_STYLE_COLOUR ( '', #983 ) ;
#1101 = AXIS2_PLACEMENT_3D ( 'NONE', #763, #946, #675 ) ;
#1102 = CIRCLE ( 'NONE', #726, 1.999999999999996669 ) ;
#1103 = PRESENTATION_STYLE_ASSIGNMENT (( #49 ) ) ;
#1104 = CIRCLE ( 'NONE', #125, 1.999999999999996669 ) ;
#1105 = ORIENTED_EDGE ( 'NONE', *, *, #12, .F. ) ;
#1106 = ORIENTED_EDGE ( 'NONE', *, *, #831, .F. ) ;
#1107 =( LENGTH_UNIT ( ) NAMED_UNIT ( * ) SI_UNIT ( .MILLI., .METRE. ) );
#1108 = VERTEX_POINT ( 'NONE', #906 ) ;
#1109 = EDGE_CURVE ( 'NONE', #656, #1090, #781, .T. ) ;
#1110 = ORIENTED_EDGE ( 'NONE', *, *, #859, .F. ) ;
#1111 = ORIENTED_EDGE ( 'NONE', *, *, #779, .F. ) ;
#1112 =( LENGTH_UNIT ( ) NAMED_UNIT ( * ) SI_UNIT ( .MILLI., .METRE. ) );
#1113 = PRESENTATION_STYLE_ASSIGNMENT (( #770 ) ) ;
#1114 = MECHANICAL_DESIGN_GEOMETRIC_PRESENTATION_REPRESENTATION (  '', ( #735 ), #1010 ) ;
#1115 = VERTEX_POINT ( 'NONE', #551 ) ;
#1116 = ORIENTED_EDGE ( 'NONE', *, *, #283, .F. ) ;
#1117 = ADVANCED_FACE ( 'NONE', ( #23 ), #45, .T. ) ;
#1118 = PRESENTATION_LAYER_ASSIGNMENT (  '', '', ( #885 ) ) ;
#1119 = FILL_AREA_STYLE ('',( #1100 ) ) ;
#1120 = UNCERTAINTY_MEASURE_WITH_UNIT (LENGTH_MEASURE( 1.000000000000000082E-05 ), #219, 'distance_accuracy_value', 'NONE');
#1121 = AXIS2_PLACEMENT_3D ( 'NONE', #706, #626, #267 ) ;
#1122 = AXIS2_PLACEMENT_3D ( 'NONE', #836, #938, #588 ) ;
#1123 = FILL_AREA_STYLE_COLOUR ( '', #992 ) ;
#1124 =( NAMED_UNIT ( * ) PLANE_ANGLE_UNIT ( ) SI_UNIT ( $, .RADIAN. ) );
#1125 = AXIS2_PLACEMENT_3D ( 'NONE', #716, #798, #871 ) ;
#1126 = UNCERTAINTY_MEASURE_WITH_UNIT (LENGTH_MEASURE( 1.000000000000000082E-05 ), #697, 'distance_accuracy_value', 'NONE');
#1127 = ADVANCED_FACE ( 'NONE', ( #321 ), #820, .F. ) ;
#1128 = PRESENTATION_STYLE_ASSIGNMENT (( #843 ) ) ;
#1129 = CARTESIAN_POINT ( 'NONE',  ( 330.8758792477384532, 31.21016270987730934, 0.000000000000000000 ) ) ;
#1130 =( LENGTH_UNIT ( ) NAMED_UNIT ( * ) SI_UNIT ( .MILLI., .METRE. ) );
#1131 = CARTESIAN_POINT ( 'NONE',  ( -29.99999999999991473, -96.88983729012279866, 0.000000000000000000 ) ) ;
#1132 = SURFACE_STYLE_USAGE ( .BOTH. , #1 ) ;
#1133 = EDGE_CURVE ( 'NONE', #316, #61, #1104, .T. ) ;
#1134 = CARTESIAN_POINT ( 'NONE',  ( -29.99999999999991473, -96.88983729012279866, 2.000000000000001776 ) ) ;
#1135 = SURFACE_STYLE_FILL_AREA ( #85 ) ;
ENDSEC;
END-ISO-10303-21;
